<?xml version="1.0" encoding="utf-8"?>
<!-- Generator: Adobe Illustrator 27.5.0, SVG Export Plug-In . SVG Version: 6.00 Build 0)  -->
<svg version="1.1" xmlns="http://www.w3.org/2000/svg" xmlns:xlink="http://www.w3.org/1999/xlink" x="0px" y="0px"
	 viewBox="0 0 500 500" style="enable-background:new 0 0 500 500;" xml:space="preserve">
<g id="Floor">
	<ellipse id="Floor_4_" style="fill:#F5F5F5;" cx="254.807" cy="355.814" rx="223.72" ry="128.932"/>
</g>
<g id="Shadows">
	<path id="Shadow_1_" style="fill:#E0E0E0;" d="M57.445,320.36l89.187-51.492c1.301-0.751,3.41-0.751,4.71,0l11.86,6.847
		c1.301,0.751,1.301,1.969,0,2.72l-89.413,51.622c-1.301,0.751-3.402,0.739-4.694-0.028l-11.666-6.922
		C56.137,322.341,56.144,321.111,57.445,320.36z"/>
	<path id="Shadow_22_" style="fill:#E0E0E0;" d="M366.592,290.932c-18.498,10.68-18.498,27.996,0,38.676
		c18.498,10.68,48.489,10.68,66.987,0c18.498-10.68,18.498-27.996,0-38.676C415.081,280.253,385.09,280.253,366.592,290.932z"/>
	<path id="Shadow" style="fill:#E0E0E0;" d="M326.758,316.681c-3.149-1.818-8.255-1.818-11.404,0l-86.66,50.033
		c-3.149,1.818-3.149,4.766,0,6.584c0,0,1.717,0.991,3.836,2.214c2.118,1.223,6.388,0.741,9.538-1.078l86.66-50.033
		c3.149-1.818,3.149-4.766,0-6.584L326.758,316.681z"/>
</g>
<g id="Blackboard">
	<g id="Board">
		<g>
			<polygon id="XMLID_1022_" style="fill:#37474F;" points="233.982,178.863 43.889,288.614 43.889,286.905 233.982,177.155 			"/>
			<polygon style="fill:#455A64;" points="228.477,173.977 233.982,177.155 43.889,286.905 38.384,283.727 			"/>
			<polygon style="fill:#263238;" points="38.384,283.727 43.889,286.905 43.889,288.614 38.384,285.436 			"/>
		</g>
		<g id="Board_1_">
			<g>
				<polygon id="XMLID_1020_" style="fill:#BA68C8;" points="228.477,173.977 38.384,283.727 38.384,145.447 228.477,35.697 				"/>
				<g id="XMLID_1019_" style="opacity:0.2;">
					<polygon points="228.477,173.977 38.384,283.727 38.384,145.447 228.477,35.697 					"/>
				</g>
			</g>
			<polygon id="XMLID_1016_" style="fill:#37474F;" points="43.241,274.446 43.241,149.12 223.62,44.979 223.62,170.305 			"/>
			<polygon style="fill:#263238;" points="43.241,270.863 43.241,274.44 223.616,170.306 223.616,44.971 220.495,46.778 
				220.495,168.518 			"/>
			<g id="XMLID_1015_" style="opacity:0.3;">
				<polygon points="43.241,274.446 38.384,283.727 228.477,173.977 223.62,170.305 				"/>
			</g>
			<g id="XMLID_1014_" style="opacity:0.15;">
				<polygon points="223.62,44.979 228.477,35.697 38.384,145.447 43.241,149.12 				"/>
			</g>
			<g>
				<g>
					<polygon style="fill:#BA68C8;" points="34.152,143.004 38.384,145.447 38.384,283.727 34.153,281.284 					"/>
					<g style="opacity:0.35;">
						<polygon points="34.152,143.004 38.384,145.447 38.384,283.727 34.153,281.284 						"/>
					</g>
				</g>
				<g>
					<polygon style="fill:#BA68C8;" points="228.477,35.697 224.245,33.254 34.152,143.004 38.384,145.447 					"/>
					<g style="opacity:0.1;">
						<polygon points="228.477,35.697 224.245,33.254 34.152,143.004 38.384,145.447 						"/>
					</g>
				</g>
			</g>
		</g>
		<path style="opacity:0.03;fill:#FFFFFF;" d="M64.446,173.155c-0.697-0.393,7.896-14.102,8.501-15.117
			c1.911-3.205,8.035-3.097,8.693,1.136c0.639,4.108,0.428,8.058-0.139,11.948c4.89-11.323,8.834-23.177,15.269-33.704
			c2.251-3.683,9.484-2.556,8.863,2.401c-1.514,12.075-4.728,23.675-8.362,35.164c6.871-18.432,11.559-37.869,15.211-56.402
			c1.035-5.254,9.577-4.073,9.342,1.264c-0.492,11.177-1.748,22.29-3.879,33.272c1.644-4.104,3.228-8.24,4.797-12.39
			c2.132-5.639,10.639-3.529,9.172,2.529c-0.556,2.299-1.113,4.598-1.669,6.897c2.249-5.267,4.447-10.557,6.551-15.885
			c1.773-4.488,10.119-4.521,9.343,1.264c-0.057,0.423-0.131,0.84-0.191,1.261c0.007,0.001,0.014,0.002,0.021,0.003
			c-0.011,0.029-0.024,0.057-0.035,0.086c-0.3,2.071-0.647,4.126-1.039,6.165c2.571-6.35,4.971-12.77,7.248-19.232
			c2.615-7.42,4.162-16.325,8.564-22.893c2.008-2.996,6.232-3.131,8.214,0c3.838,6.066,1.541,13.013,0.097,19.629
			c-2.106,9.654-4.857,19.158-8.011,28.519c-1.411,4.188-2.91,8.344-4.462,12.48c2.488-3.985,4.882-8.029,7.141-12.155
			c9.092-16.604,13.218-34.892,21.37-51.821c2.064-4.288,9.027-2.161,8.863,2.401c-0.499,13.899-4.1,27-9.279,39.857
			c-1.775,4.407-3.687,8.754-5.622,13.092c5.847-8.427,11.415-17.049,16.703-25.864c1.948-3.248,7.951-3.062,8.693,1.136
			c1.445,8.174,1.183,15.905-1.078,23.892c-1.665,5.881-10.846,3.382-9.173-2.529c0.325-1.147,0.588-2.272,0.823-3.391
			c-8.889,13.658-18.48,26.825-28.739,39.526c-2.559,3.168-8.398,0.58-8.119-3.363c0.186-2.631,0.68-5.254,1.374-7.862
			c-6.292,9.437-13.013,18.598-19.726,27.727c-3.663,4.982-10.638,0.822-8.213-4.801c3.914-9.078,7.795-18.175,11.483-27.347
			c-5.798,11.435-12.403,22.42-20.058,32.771c-3.622,4.898-10.863,0.806-8.213-4.801c1.432-3.031,2.861-6.07,4.269-9.121
			c-2.505,1.122-5.422-0.074-6.422-2.438c-1.641,2.822-3.342,5.614-5.192,8.333c-2.29,3.366-6.284,2.729-8.044-0.086
			c-4.66,10-10.088,19.516-16.508,28.179c-3.153,4.255-9.846,1.852-8.693-3.665c2.116-10.122,5.255-19.978,8.531-29.794
			c-1.924,3.356-4.048,6.614-6.485,9.722c-2.674,3.411-8.072,0.401-8.119-3.363c-0.068-5.374,1.268-10.682,2.529-15.978
			c-3.009,2.82-6.603,4.037-10.992,1.56C54.314,178.36,59.103,170.14,64.446,173.155z"/>
		<g id="Text">
			<g>
				<path style="fill:#FAFAFA;" d="M61.672,173.015c0.539-2.529,2.023-6.136,4.225-7.407c1.921-1.109,3.996-0.556,3.996,2.686
					c0,0.584-0.145,1.782-0.742,2.127c-0.691,0.399-0.691-0.937-0.691-1.909c0-1.181-1.467-1.332-2.487-0.743
					c-2.841,1.64-3.642,8.82-3.642,11.182c0,3.073,1.871,3.809,3.684,2.763c0.902-0.521,2.547-1.665,3.415-2.828
					c0.354-0.477,0.446-1.127,0.944-1.414c0.479-0.277,0.792,0.114,0.792,0.839c0,0.48-0.067,0.792-0.262,1.15
					c-0.852,1.594-3.178,3.417-4.679,4.284c-2.631,1.518-5.388,1.762-5.388-4.036C60.837,177.815,61.226,175.127,61.672,173.015z"/>
				<path style="fill:#FAFAFA;" d="M73.235,160.644c0-0.583,0.32-1.508,0.818-1.795c0.43-0.249,1.399,0.347,1.399,1.281
					c0,0.233-0.202,1.141-0.649,1.399C74.416,161.753,73.235,161.85,73.235,160.644z M73.505,172.097
					c0-1.933,0.17-4.145,0.396-6.091c0.025-0.314,0.296-1.39,0.759-1.658c0.498-0.287,0.599,0.226,0.599,0.899
					c0,1.829-0.202,4.67-0.202,6.447c0,1.556,0.362,3.902,0.362,5.51c0,0.843-0.337,1.517-0.683,1.716
					c-0.675,0.39-0.979,0.241-1.104-0.62C73.59,178.053,73.505,177.038,73.505,172.097z"/>
				<path style="fill:#FAFAFA;" d="M78.579,173.291c0-0.531-0.017-1.066-0.05-1.617c-0.06-0.887-0.06-1.964-0.018-2.753l0.278-5.284
					c0.042-0.855,0.228-1.494,0.826-1.839c0.497-0.287,0.733,0.161,0.801,0.601c0.928-1.612,2.243-2.799,3.364-3.446
					c0.944-0.545,2.631-1.272,2.631,0.725c0,0.714-0.313,1.373-0.784,1.646c-0.363,0.209-0.531,0.009-0.691-0.21
					c-0.144-0.164-0.312-0.404-1.121,0.063c-2.547,1.47-3.702,3.706-3.702,7.507c0,1.413,0.068,2.425,0.136,3.839
					c0.025,0.543,0.084,1.106,0.084,1.664c0,0.311-0.211,1.353-0.818,1.704c-0.784,0.453-0.985,0.025-0.985-1.168
					C78.529,174.268,78.579,173.745,78.579,173.291z"/>
				<path style="fill:#FAFAFA;" d="M93.01,153.896c0.944-0.545,2.833,0.025,2.833,2.166c0,0.636-0.515,2.722-1.113,0.811
					c-0.312-0.921-1.205-0.874-2.048-0.387c-2.05,1.183-3.306,4.71-3.306,7.46c0,3.359,1.366,3.323,3.414,2.14
					c0.616-0.355,1.113-0.487,1.721-1.214l0.346-0.446c0.193-0.229,0.388-0.47,0.48-0.523c0.228-0.131,0.902-0.132,0.902,1.009
					c0,0.583-0.599,1.63-0.937,1.825l-0.665,0.384c-0.784,0.453-1.51,1.027-2.319,1.494c-2.411,1.392-4.493,1.323-4.493-3.035
					C87.825,160.82,89.654,155.833,93.01,153.896z"/>
				<path style="fill:#FAFAFA;" d="M99.025,160.929c0-2.321-0.176-4.385-0.134-6.77l0.067-6.81c0-1.142,0.193-2.032,0.775-2.368
					c0.43-0.248,0.708,0.214,0.708,0.694v9.521c0,1.88,0.017,3.765,0.244,5.565c0.068,0.597,0.313,0.573,0.523,0.451
					c0.169-0.098,0.277-0.303,0.337-0.442c0.136-0.324,0.262-0.63,0.624-0.84c0.396-0.229,0.599,0.225,0.599,0.744
					c0,1.076-0.936,2.33-1.585,2.705c-1.172,0.715-1.889,0.299-2.116-1.139C99.01,161.872,99.025,161.383,99.025,160.929z"/>
				<path style="fill:#FAFAFA;" d="M109.327,144.385c1.754-1.013,3.887-0.531,3.887,2.478c0,0.778-0.244,1.205-0.616,1.562
					c-0.328,0.332-0.758,0.646-1.298,1.216l-5.64,5.955c0.438,2.911,2.697,1.827,3.902,1.131c1.29-0.745,2.589-2.585,2.951-2.794
					c0.599-0.346,0.86-0.094,0.86,0.788c0,1.738-3.786,4.054-4.663,4.56c-2.352,1.358-4.67-0.145-4.67-3.776
					C104.041,150.589,105.921,146.351,109.327,144.385z M111.67,147.053c-0.244-1.169-1.196-1.19-2.596-0.382
					c-0.945,0.545-3.153,2.948-3.457,6.911C107.195,151.946,110.432,148.65,111.67,147.053z"/>
				<path style="fill:#FAFAFA;" d="M117.46,150.779c0.742,0.856,1.113,0.693,2.242,0.042c1.341-0.774,2.993-2.804,2.993-3.233
					c0-0.558-0.986-0.624-2.175-0.248c-2.074,0.782-4.638,1.665-4.638-1.603c0-3.515,2.513-7.028,4.773-8.333
					c1.585-0.915,2.604-0.207,2.604,1.168c0,0.869,0.018,2.39-0.699,2.803c-0.438,0.253-0.447-0.39-0.447-0.805
					c0-1.336-0.623-1.261-1.702-0.638c-1.104,0.638-3.01,3.19-3.01,4.786c0,1.336,1.525,0.805,3.035,0.284
					c1.863-0.622,3.794-0.984,3.794,1.661c0,2.789-3.433,5.782-4.747,6.542c-1.021,0.589-2.976,1.433-2.976-0.772
					C116.507,151.978,117.055,150.313,117.46,150.779z"/>
			</g>
			<g id="Circle">
				<g>
					
						<rect x="150.912" y="112.465" transform="matrix(0.4647 -0.8855 0.8855 0.4647 0.7715 227.2068)" style="fill:#BA68C8;" width="74.774" height="1"/>
				</g>
				<g style="opacity:0.3;">
					
						<rect x="150.912" y="112.465" transform="matrix(0.4647 -0.8855 0.8855 0.4647 0.7715 227.2068)" style="fill:#FFFFFF;" width="74.774" height="1"/>
				</g>
				<g>
					<g>
						<path style="fill:#BA68C8;" d="M171.726,101.02c-0.105,0-0.21-0.033-0.3-0.101l-0.799-0.601
							c-0.221-0.166-0.265-0.479-0.099-0.7c0.166-0.221,0.479-0.265,0.7-0.099l0.799,0.601c0.221,0.165,0.265,0.479,0.099,0.7
							C172.028,100.951,171.878,101.02,171.726,101.02z"/>
					</g>
					<g>
						<path style="fill:#BA68C8;" d="M184.891,110.922c-0.104,0-0.21-0.033-0.3-0.101l-1.755-1.32
							c-0.22-0.166-0.265-0.479-0.099-0.7s0.479-0.265,0.7-0.099l1.755,1.32c0.22,0.166,0.265,0.479,0.099,0.7
							C185.193,110.854,185.043,110.922,184.891,110.922z M180.502,107.621c-0.104,0-0.21-0.033-0.3-0.101l-1.755-1.32
							c-0.221-0.166-0.265-0.479-0.099-0.7c0.166-0.22,0.478-0.266,0.7-0.099l1.755,1.32c0.22,0.166,0.265,0.479,0.099,0.7
							C180.804,107.552,180.654,107.621,180.502,107.621z M176.114,104.32c-0.105,0-0.21-0.033-0.3-0.101l-1.755-1.32
							c-0.22-0.166-0.265-0.479-0.099-0.7c0.166-0.22,0.479-0.265,0.7-0.099l1.755,1.32c0.22,0.166,0.265,0.479,0.099,0.7
							C176.416,104.252,176.266,104.32,176.114,104.32z"/>
					</g>
					<g>
						<path style="fill:#BA68C8;" d="M188.323,113.504c-0.104,0-0.21-0.033-0.3-0.101l-0.799-0.601
							c-0.221-0.165-0.265-0.479-0.099-0.7c0.165-0.221,0.48-0.266,0.7-0.099l0.799,0.601c0.221,0.165,0.265,0.479,0.099,0.7
							C188.625,113.436,188.475,113.504,188.323,113.504z"/>
					</g>
				</g>
				<g>
					<path style="fill:#FAFAFA;" d="M178.571,149.152c-2.359,0-4.57-0.568-6.55-1.711c-5.548-3.203-8.73-10.592-8.73-20.273
						c0-18.195,11.118-39.417,24.783-47.307c6.06-3.498,11.939-3.958,16.552-1.294c5.548,3.203,8.73,10.593,8.73,20.273
						c0,18.196-11.117,39.417-24.782,47.307C185.113,148.145,181.711,149.152,178.571,149.152z M198.074,77.859
						c-2.967,0-6.198,0.961-9.501,2.868c-13.39,7.73-24.283,28.564-24.283,46.441c0,9.314,2.999,16.388,8.23,19.408
						c4.293,2.478,9.815,2.018,15.553-1.294c13.389-7.73,24.282-28.563,24.282-46.441c0-9.314-3-16.388-8.23-19.407
						C202.305,78.382,200.261,77.859,198.074,77.859z"/>
				</g>
				<path style="fill:#FAFAFA;" d="M190.296,111.866c0,1.452-0.883,3.14-1.972,3.769s-1.972-0.039-1.972-1.491
					s0.883-3.14,1.972-3.769C189.413,109.746,190.296,110.413,190.296,111.866z"/>
				<g>
					<path style="fill:#BA68C8;" d="M170.912,146.601c-0.106,0-0.213-0.034-0.304-0.103c-4.718-3.614-7.317-10.479-7.317-19.33
						c0-8.799,2.564-18.552,7.218-27.462c0.128-0.245,0.431-0.34,0.675-0.212c0.245,0.128,0.339,0.43,0.212,0.675
						c-4.581,8.77-7.104,18.358-7.104,26.999c0,8.533,2.46,15.116,6.925,18.536c0.219,0.168,0.261,0.482,0.093,0.701
						C171.21,146.533,171.062,146.601,170.912,146.601z"/>
				</g>
			</g>
			<g id="Formulas">
				<g>
					<path style="fill:#FAFAFA;" d="M144.944,114.117c-0.369,0.739-0.693,1.329-1.205,1.745c-0.516,0.42-1.023,0.576-1.528,0.699
						c-0.868,0.212-2.601,0.378-3.054,2.34c-0.055,0.237,0.086,0.675,0.27,0.445c0.483-0.605,0.962-0.969,1.463-1.172
						c-0.059,0.475-0.05,0.942-0.063,1.391c-0.014,0.48-0.027,0.961-0.041,1.441c-0.016,0.536-0.034,1.073-0.047,1.608
						c-0.007,0.273-0.04,0.604-0.018,0.858c0.033,0.369,0.229,0.58,0.474,0.526c0.132-0.029,0.277-0.12,0.387-0.323
						c0.096-0.176,0.103-0.329,0.119-0.513c0.01-0.11,0.028-0.216,0.029-0.329c0.002-0.149,0.004-0.298,0.007-0.447
						c0.008-0.538,0.014-1.075,0.02-1.613c0.006-0.479,0.011-0.958,0.017-1.437c0.003-0.258,0.006-0.516,0.009-0.774
						c0.001-0.11,0.004-0.222,0.004-0.332c0-0.117-0.015-0.201-0.025-0.294c0.416-0.086,0.831-0.171,1.256-0.335
						c0.006-0.003,0.013-0.007,0.02-0.009c-0.069,0.794-0.094,1.574-0.1,2.337c-0.007,0.839-0.002,1.67,0.016,2.495
						c0.008,0.408,0.349,0.513,0.586,0.389c0.271-0.143,0.452-0.518,0.439-0.921c-0.029-0.924-0.043-1.858-0.04-2.802
						c0.001-0.453,0.006-0.905-0.002-1.352c-0.004-0.214-0.008-0.429-0.019-0.639c0.726-0.521,1.455-1.358,1.765-2.554
						C145.837,113.943,145.219,113.567,144.944,114.117z"/>
					<path style="fill:#FAFAFA;" d="M151.065,117.449c-0.036-0.022-0.072-0.043-0.109-0.065c-0.091,0.054-0.133,0.03-0.126-0.074
						c-0.088-0.04-0.184-0.046-0.279-0.06c-0.327-0.051-0.645-0.133-0.95-0.257c-0.469-0.19-0.905-0.479-1.317-0.819
						c0.449-0.568,0.882-1.175,1.281-1.857c0.456-0.779,1.206-2.021,1.131-2.972c-0.079-1.009-0.859-1.004-1.462-0.6
						c-0.671,0.45-1.427,1.314-1.898,2.34c-0.053,0.115-0.08,0.237-0.123,0.355c-0.02-0.121-0.03-0.252-0.057-0.365
						c-0.05-0.206-0.398-0.43-0.519,0.012c-0.21,0.768-0.219,1.512-0.225,2.226c-0.005,0.63,0.002,1.255,0.02,1.871
						c0.018,0.617,0.047,1.227,0.088,1.828c0.02,0.299,0.033,0.611,0.07,0.896c0.06,0.468,0.218,0.637,0.527,0.659
						c0.153,0.011,0.365-0.13,0.479-0.394c0.124-0.288,0.09-0.517,0.013-0.713l-0.023-0.059c-0.002-0.025-0.007-0.069-0.015-0.141
						c-0.014-0.121-0.026-0.242-0.038-0.363c-0.027-0.263-0.051-0.528-0.073-0.796c-0.022-0.271-0.035-0.549-0.053-0.825
						c0.426,0.396,0.873,0.745,1.364,0.985c0.349,0.17,0.713,0.298,1.087,0.39c0.298,0.074,0.812,0.271,1.163-0.154
						C151.313,118.142,151.261,117.624,151.065,117.449z M148.298,113.084c0.38-0.534,1.03-1.291,1.461-1.324
						c-0.014,0.046-0.068,0.237-0.064,0.224c-0.031,0.086-0.067,0.164-0.105,0.245c-0.222,0.475-0.477,0.93-0.734,1.362
						c-0.448,0.757-0.946,1.417-1.46,2.023C147.34,114.819,147.863,113.696,148.298,113.084z"/>
					<path style="fill:#FAFAFA;" d="M154.814,107.754c-0.029-0.104-0.074-0.184-0.135-0.239c-0.066-0.06-0.142-0.09-0.228-0.089
						c-0.068-0.186-0.654,0.493-0.808,0.637c-0.135,0.127-0.272,0.238-0.41,0.34c0.077-0.205,0.154-0.41,0.23-0.615
						c0.248-0.663,0.578-1.396,0.552-2.07c-0.027-0.682-0.441-1.059-0.856-1.023c-0.387,0.033-0.787,0.43-1.158,0.833
						c-0.161,0.175-0.191,0.456-0.136,0.651c0.049,0.174,0.214,0.366,0.377,0.198c0.281-0.287,0.615-0.662,0.905-0.679
						c0.036-0.002,0.052-0.001,0.101,0.021c0.021,0.009,0.02,0.009-0.002-0.003c0.004,0.003,0.007,0.007,0.011,0.01
						c0.001,0.024,0.005,0.138,0.006,0.079c0.001-0.041-0.015,0.112-0.015,0.113c-0.011,0.06-0.031,0.123-0.05,0.182
						c-0.079,0.239-0.19,0.473-0.285,0.702c-0.11,0.265-0.22,0.531-0.329,0.796c-0.219,0.532-0.435,1.068-0.661,1.595
						c-0.253,0.591-0.008,1.034,0.318,0.99c0.38-0.05,0.79-0.228,1.184-0.496c0.44-0.299,0.917-0.674,1.293-1.27
						C154.845,108.218,154.859,107.928,154.814,107.754z"/>
				</g>
				<g>
					<path style="fill:#FAFAFA;" d="M149.799,127.654c-0.369,0.739-0.693,1.329-1.205,1.745c-0.516,0.419-1.023,0.576-1.528,0.699
						c-0.868,0.212-2.601,0.378-3.054,2.34c-0.055,0.237,0.086,0.675,0.27,0.445c0.483-0.605,0.962-0.969,1.463-1.172
						c-0.059,0.475-0.05,0.942-0.063,1.391c-0.014,0.48-0.027,0.961-0.041,1.441c-0.016,0.536-0.034,1.073-0.047,1.608
						c-0.007,0.273-0.04,0.604-0.018,0.858c0.033,0.37,0.229,0.58,0.474,0.526c0.132-0.029,0.277-0.12,0.387-0.323
						c0.096-0.176,0.103-0.329,0.119-0.513c0.01-0.11,0.027-0.216,0.029-0.329c0.002-0.149,0.005-0.298,0.007-0.447
						c0.008-0.538,0.014-1.075,0.02-1.613c0.006-0.479,0.011-0.958,0.017-1.437c0.003-0.258,0.006-0.516,0.009-0.774
						c0.001-0.11,0.004-0.222,0.004-0.332c0-0.117-0.015-0.201-0.025-0.294c0.416-0.086,0.831-0.171,1.256-0.335
						c0.006-0.003,0.013-0.007,0.02-0.009c-0.069,0.794-0.094,1.574-0.1,2.337c-0.007,0.839-0.002,1.67,0.016,2.495
						c0.008,0.407,0.349,0.513,0.586,0.389c0.271-0.143,0.452-0.518,0.439-0.921c-0.029-0.924-0.043-1.858-0.04-2.802
						c0.001-0.453,0.006-0.905-0.002-1.352c-0.004-0.214-0.008-0.429-0.019-0.639c0.726-0.521,1.455-1.358,1.765-2.554
						C150.692,127.479,150.073,127.104,149.799,127.654z"/>
					<path style="fill:#FAFAFA;" d="M155.919,130.986c-0.036-0.022-0.073-0.043-0.109-0.065c-0.091,0.054-0.133,0.03-0.126-0.074
						c-0.088-0.04-0.184-0.046-0.279-0.06c-0.326-0.051-0.645-0.133-0.95-0.257c-0.47-0.19-0.905-0.479-1.318-0.819
						c0.449-0.568,0.882-1.175,1.281-1.857c0.456-0.779,1.206-2.021,1.131-2.972c-0.079-1.009-0.859-1.004-1.462-0.6
						c-0.671,0.45-1.427,1.314-1.898,2.34c-0.053,0.115-0.08,0.237-0.123,0.355c-0.02-0.122-0.03-0.252-0.057-0.366
						c-0.05-0.206-0.398-0.43-0.519,0.012c-0.21,0.768-0.219,1.512-0.225,2.226c-0.005,0.63,0.002,1.255,0.02,1.871
						c0.018,0.617,0.047,1.227,0.088,1.828c0.02,0.299,0.033,0.61,0.07,0.896c0.06,0.468,0.218,0.637,0.527,0.659
						c0.153,0.011,0.365-0.13,0.479-0.394c0.124-0.288,0.09-0.517,0.013-0.713l-0.023-0.059c-0.002-0.025-0.007-0.069-0.015-0.141
						c-0.013-0.121-0.026-0.242-0.038-0.363c-0.027-0.263-0.051-0.528-0.073-0.796c-0.022-0.271-0.035-0.549-0.053-0.824
						c0.426,0.396,0.873,0.745,1.364,0.985c0.349,0.17,0.713,0.298,1.087,0.39c0.298,0.074,0.812,0.272,1.163-0.154
						C156.167,131.678,156.116,131.161,155.919,130.986z M153.153,126.621c0.38-0.534,1.03-1.291,1.461-1.324
						c-0.014,0.046-0.068,0.237-0.064,0.224c-0.031,0.086-0.067,0.164-0.105,0.245c-0.222,0.475-0.478,0.93-0.734,1.362
						c-0.448,0.757-0.947,1.417-1.46,2.023C152.194,128.356,152.718,127.232,153.153,126.621z"/>
					<path style="fill:#FAFAFA;" d="M143.893,137.719c-0.087-0.342-0.347-0.393-0.6-0.247c-0.759,0.436-1.518,0.872-2.277,1.308
						c0.335-0.777,0.651-1.568,0.922-2.382c0.454-1.367,0.884-2.95,0.926-4.303c0.023-0.723-0.156-1.327-0.523-1.562
						c-0.347-0.221-0.809-0.002-1.226,0.383c-0.765,0.705-1.692,2.286-1.472,3.519c0.017,0.095,0.093,0.301,0.194,0.178
						c0.274-0.332,0.446-0.881,0.647-1.318c0.21-0.458,0.469-0.874,0.758-1.188c0.161-0.175,0.552-0.572,0.673-0.417
						c0.2,0.258-0.049,1.268-0.136,1.712c-0.435,2.213-1.255,4.344-2.211,6.331c-0.367,0.763,0.149,1.113,0.514,0.903
						c1.169-0.673,2.339-1.348,3.508-2.022C143.834,138.475,143.965,138.001,143.893,137.719z"/>
				</g>
				<g>
					<path style="fill:#FAFAFA;" d="M149.111,150.415c-0.036-0.022-0.072-0.043-0.109-0.065c-0.091,0.055-0.133,0.03-0.126-0.073
						c-0.088-0.04-0.184-0.046-0.279-0.06c-0.327-0.051-0.645-0.133-0.95-0.257c-0.469-0.19-0.905-0.479-1.318-0.819
						c0.449-0.568,0.882-1.175,1.281-1.857c0.456-0.779,1.206-2.021,1.131-2.972c-0.079-1.009-0.859-1.004-1.462-0.6
						c-0.671,0.45-1.427,1.314-1.898,2.34c-0.053,0.115-0.08,0.237-0.123,0.355c-0.02-0.121-0.03-0.252-0.057-0.365
						c-0.05-0.206-0.398-0.43-0.519,0.013c-0.21,0.768-0.219,1.512-0.225,2.226c-0.005,0.63,0.002,1.255,0.02,1.871
						c0.018,0.617,0.047,1.227,0.088,1.828c0.02,0.299,0.033,0.611,0.07,0.896c0.06,0.468,0.218,0.637,0.527,0.659
						c0.153,0.011,0.365-0.13,0.479-0.394c0.124-0.288,0.09-0.517,0.013-0.713l-0.023-0.059c-0.002-0.025-0.007-0.068-0.015-0.141
						c-0.013-0.121-0.026-0.242-0.038-0.363c-0.027-0.263-0.051-0.528-0.073-0.796c-0.022-0.271-0.035-0.549-0.053-0.824
						c0.426,0.396,0.873,0.745,1.364,0.985c0.349,0.17,0.713,0.298,1.087,0.39c0.298,0.074,0.812,0.271,1.163-0.154
						C149.359,151.108,149.307,150.59,149.111,150.415z M146.344,146.05c0.38-0.534,1.03-1.291,1.461-1.324
						c-0.014,0.046-0.068,0.237-0.064,0.224c-0.031,0.086-0.067,0.164-0.105,0.245c-0.222,0.475-0.477,0.93-0.733,1.362
						c-0.448,0.757-0.947,1.417-1.46,2.023C145.386,147.785,145.91,146.662,146.344,146.05z"/>
					<path style="fill:#FAFAFA;" d="M143.893,153.785c-0.087-0.342-0.347-0.393-0.6-0.247c-0.759,0.436-1.518,0.872-2.277,1.308
						c0.335-0.777,0.651-1.568,0.922-2.382c0.454-1.367,0.884-2.95,0.926-4.303c0.023-0.723-0.156-1.327-0.523-1.561
						c-0.347-0.221-0.809-0.002-1.226,0.383c-0.765,0.705-1.692,2.286-1.472,3.519c0.017,0.095,0.093,0.301,0.194,0.179
						c0.274-0.332,0.446-0.881,0.647-1.318c0.21-0.458,0.469-0.874,0.758-1.188c0.161-0.175,0.552-0.572,0.673-0.417
						c0.2,0.258-0.049,1.268-0.136,1.712c-0.435,2.213-1.255,4.344-2.211,6.331c-0.367,0.763,0.149,1.113,0.514,0.903
						c1.169-0.673,2.339-1.348,3.508-2.022C143.834,154.542,143.965,154.067,143.893,153.785z"/>
				</g>
			</g>
		</g>
		<g id="Chalk">
			<path style="fill:#FAFAFA;" d="M160.809,214.889c0-1.02-0.716-2.259-1.599-2.769c-0.441-0.255-0.84-0.279-1.129-0.113l0,0
				l-18.066,10.43l2.263,3.915l18.066-10.43l0-0.001C160.63,215.755,160.809,215.397,160.809,214.889z"/>
			<path style="fill:#E6E6E6;" d="M141.142,222.551c0.883,0.51,1.599,1.749,1.599,2.769c0,1.02-0.716,1.433-1.599,0.923
				c-0.883-0.51-1.599-1.75-1.599-2.769S140.259,222.041,141.142,222.551z"/>
		</g>
		<g id="Rule_Conveyor">
			<g>
				<g>
					<path style="fill:#BA68C8;" d="M206.552,162.751c-4.264-2.46-9.822-2.229-15.902,1.281
						c-13.436,7.758-24.328,28.618-24.328,46.533l2.703,1.561l20.984-12.115l24.969-14.416l2.703-1.561
						c0-9.818-3.262-16.735-8.418-19.715C208.813,164.057,207.005,163.013,206.552,162.751z M193.354,174.603
						c3.757-2.169,7.232-2.592,10.087-1.561c1.39,1.169,2.531,2.796,3.347,4.846l-28.343,16.364
						C181.547,185.833,187.062,178.236,193.354,174.603z"/>
				</g>
				<g style="opacity:0.2;">
					<path d="M206.552,162.751c-4.264-2.46-9.822-2.229-15.902,1.281c-13.436,7.758-24.328,28.618-24.328,46.533l2.703,1.561
						l20.984-12.115l24.969-14.416l2.703-1.561c0-9.818-3.262-16.735-8.418-19.715C208.813,164.057,207.005,163.013,206.552,162.751
						z M193.354,174.603c3.757-2.169,7.232-2.592,10.087-1.561c1.39,1.169,2.531,2.796,3.347,4.846l-28.343,16.364
						C181.547,185.833,187.062,178.236,193.354,174.603z"/>
				</g>
				<g style="opacity:0.2;">
					<polygon points="206.787,177.888 209.49,179.449 177.178,198.104 174.427,196.516 					"/>
				</g>
			</g>
			<g id="XMLID_977_">
				<path style="fill:#BA68C8;" d="M214.979,185.594l2.703-1.561c0-17.942-10.892-26.198-24.328-18.44s-24.328,28.617-24.328,46.532
					l20.984-12.115L214.979,185.594L214.979,185.594z M193.353,174.603c7.235-4.177,13.443-1.928,16.137,4.846l-32.277,18.635
					C179.906,188.199,186.118,178.781,193.353,174.603z"/>
			</g>
			<path id="XMLID_41451_" style="opacity:0.2;fill:#FFFFFF;" d="M181.334,178.696c10.525-14.343,19.174-15.868,24.049-15.795
				c-3.549-0.653-7.652,0.165-12.029,2.692c-13.436,7.757-24.328,28.618-24.328,46.533l1.842-1.064
				C170.867,210.594,170.935,192.867,181.334,178.696z"/>
			<g id="XMLID_970_">
				<polygon id="XMLID_42609_" style="fill:#37474F;" points="171.724,210.567 171.729,205.273 172.405,204.883 172.4,210.177 				
					"/>
				<polygon id="XMLID_42606_" style="fill:#37474F;" points="174.427,209.006 174.427,205.401 175.103,205.01 175.103,208.616 				
					"/>
				<polygon id="XMLID_42603_" style="fill:#37474F;" points="179.833,205.885 179.833,202.279 180.509,201.889 180.509,205.495 
									"/>
				<polygon id="XMLID_42600_" style="fill:#37474F;" points="185.24,202.764 185.24,199.158 185.915,198.768 185.915,202.374 				
					"/>
				<polygon id="XMLID_42597_" style="fill:#37474F;" points="190.646,199.642 190.646,196.037 191.322,195.647 191.322,199.252 
									"/>
				<polygon id="XMLID_42594_" style="fill:#37474F;" points="196.052,196.521 196.052,192.916 196.728,192.525 196.728,196.131 
									"/>
				<polygon id="XMLID_42591_" style="fill:#37474F;" points="201.459,193.4 201.458,189.795 202.134,189.404 202.134,193.01 				
					"/>
				<polygon id="XMLID_42588_" style="fill:#37474F;" points="206.865,190.278 206.865,186.673 207.541,186.283 207.541,189.888 
									"/>
				<polygon id="XMLID_42561_" style="fill:#37474F;" points="212.271,187.157 212.271,183.552 212.947,183.162 212.947,186.767 
									"/>
				<polygon id="XMLID_41538_" style="fill:#37474F;" points="177.13,207.446 177.135,202.152 177.811,201.762 177.806,207.056 				
					"/>
				<polygon id="XMLID_41534_" style="fill:#37474F;" points="182.536,204.324 182.541,199.031 183.217,198.641 183.212,203.934 
									"/>
				<polygon id="XMLID_41530_" style="fill:#37474F;" points="187.942,201.203 187.947,195.911 188.623,195.52 188.618,200.813 				
					"/>
				<polygon id="XMLID_41518_" style="fill:#37474F;" points="193.348,198.082 193.353,192.79 194.029,192.399 194.024,197.692 				
					"/>
				<polygon id="XMLID_41511_" style="fill:#37474F;" points="198.754,194.961 198.76,189.669 199.435,189.278 199.43,194.571 				
					"/>
				<polygon id="XMLID_41499_" style="fill:#37474F;" points="204.16,191.84 204.165,186.548 204.841,186.157 204.836,191.45 				
					"/>
				<polygon id="XMLID_41495_" style="fill:#37474F;" points="209.566,188.719 209.572,183.427 210.247,183.036 210.242,188.329 
									"/>
				<polygon id="XMLID_41489_" style="fill:#37474F;" points="214.973,185.598 214.977,180.306 215.653,179.916 215.648,185.207 
									"/>
			</g>
		</g>
	</g>
</g>
<g id="Clock">
	<g id="Clock_3_">
		<g>
			<path id="XMLID_1100_" style="fill:#37474F;" d="M119.93,41.201l0.001-0.001l-0.028-0.014c-0.001,0-0.002-0.001-0.003-0.001
				l-5.004-2.901c-0.002-0.001-0.004-0.002-0.006-0.003l-0.039-0.02l-0.001,0.002c-3.153-1.598-7.364-1.128-11.899,1.792
				C93.84,45.918,86.882,59.447,87.407,70.27c0.262,5.394,2.335,9.097,5.475,10.729l-0.001,0.001l0.028,0.014
				c0.001,0.001,0.002,0.001,0.004,0.002l5.006,2.902c0.001,0.001,0.002,0.001,0.003,0.002l0.033,0.017l0.001-0.001
				c3.153,1.603,7.368,1.135,11.907-1.788c9.109-5.867,16.068-19.395,15.542-30.218C125.143,46.535,123.07,42.833,119.93,41.201z"/>
			<path id="XMLID_1099_" style="fill:#263238;" d="M97.689,83.794l-4.774-2.779c-0.005,0-0.005,0-0.005,0l-0.03-0.018
				c-3.139-1.636-5.21-5.339-5.472-10.725c-0.234-4.827,1.022-10.189,3.288-15.166l5.007,2.901
				c-2.271,4.978-3.523,10.34-3.288,15.166C92.671,78.451,94.661,82.108,97.689,83.794z"/>
			<path id="XMLID_1053_" style="fill:#455A64;" d="M109.863,82.147c9.109-5.867,16.068-19.395,15.542-30.218
				c-0.525-10.822-8.336-14.84-17.446-8.974c-9.11,5.866-16.068,19.395-15.543,30.218C92.942,83.996,100.753,88.013,109.863,82.147z
				"/>
		</g>
		<path id="XMLID_1037_" style="fill:#FAFAFA;" d="M102.229,81.392c-5.37,0.261-6.245-5.778-6.372-8.386
			c-0.464-9.545,5.933-21.981,13.967-27.154c2.045-1.317,4.04-2.057,5.769-2.142c5.371-0.261,6.245,5.778,6.372,8.386
			c0.464,9.545-5.933,21.98-13.967,27.154C105.952,80.568,103.957,81.309,102.229,81.392L102.229,81.392z"/>
		<g>
			<path style="fill:#37474F;" d="M109.965,64.341c-0.064,0-0.128-0.01-0.19-0.032c-0.236-0.081-0.395-0.304-0.395-0.553V49.945
				c0-0.323,0.262-0.585,0.585-0.585c0.323,0,0.585,0.262,0.585,0.585v12.108l6.44-8.272c0.198-0.255,0.565-0.301,0.821-0.102
				c0.255,0.199,0.301,0.566,0.102,0.821l-7.487,9.617C110.313,64.261,110.142,64.341,109.965,64.341z"/>
			<g id="XMLID_332_">
				<g id="XMLID_1013_">
					<path id="XMLID_1023_" style="fill:#BA68C8;" d="M106.667,74.539c-0.027,0.001-0.055-0.002-0.082-0.01
						c-0.13-0.038-0.205-0.175-0.166-0.306l3.24-10.922c0.039-0.13,0.176-0.205,0.306-0.166c0.13,0.039,0.205,0.175,0.166,0.306
						l-3.24,10.922C106.86,74.466,106.768,74.534,106.667,74.539z"/>
				</g>
				<path id="XMLID_1012_" style="fill:#BA68C8;" d="M109.779,60.994c1.072-0.69,1.991-0.218,2.053,1.056
					c0.062,1.273-0.757,2.865-1.828,3.555c-1.072,0.69-1.991,0.217-2.053-1.056C107.889,63.276,108.707,61.684,109.779,60.994z"/>
			</g>
		</g>
	</g>
</g>
<g id="Circles">
	<g id="Circle_1_">
		<path style="fill:#BA68C8;" d="M126.54,423.684c-16.373,0-32.746-3.599-45.21-10.795c-12.17-7.027-18.874-16.4-18.874-26.391
			c0-9.992,6.703-19.365,18.874-26.392c24.929-14.393,65.491-14.393,90.42,0c12.17,7.027,18.873,16.399,18.873,26.392
			c0,9.992-6.703,19.364-18.873,26.391C159.286,420.085,142.913,423.684,126.54,423.684z M126.54,350.297
			c-16.192,0-32.384,3.559-44.71,10.676c-11.848,6.84-18.374,15.906-18.374,25.525c0,9.619,6.525,18.685,18.374,25.525
			c24.653,14.234,64.767,14.234,89.42,0c11.848-6.84,18.373-15.906,18.373-25.525c0-9.62-6.525-18.685-18.373-25.525
			C158.924,353.855,142.732,350.297,126.54,350.297z"/>
	</g>
	<g id="Circle_3_">
		<path style="fill:#BA68C8;" d="M342.733,449.163c-0.276,0-0.533-0.224-0.533-0.5s0.19-0.5,0.467-0.5h0.066
			c0.641,0,1.282-0.007,1.924-0.021c0.296,0.011,0.505,0.213,0.511,0.489c0.006,0.276-0.213,0.504-0.489,0.511
			C344.029,449.155,343.382,449.163,342.733,449.163z M339.668,449.109c-0.006,0-0.012,0-0.018,0
			c-0.671-0.023-1.341-0.054-2.01-0.093c-0.275-0.016-0.486-0.252-0.47-0.528c0.016-0.276,0.246-0.489,0.528-0.47
			c0.661,0.038,1.323,0.069,1.986,0.092c0.276,0.009,0.492,0.241,0.483,0.517C340.158,448.897,339.936,449.109,339.668,449.109z
			 M347.665,449.023c-0.264,0-0.484-0.206-0.499-0.472c-0.016-0.276,0.195-0.512,0.471-0.527c0.663-0.038,1.324-0.083,1.986-0.135
			c0.258-0.013,0.516,0.184,0.537,0.459c0.022,0.275-0.184,0.516-0.459,0.538c-0.668,0.053-1.337,0.099-2.008,0.136
			C347.684,449.023,347.674,449.023,347.665,449.023z M334.681,448.79c-0.016,0-0.032,0-0.048-0.002
			c-0.669-0.063-1.336-0.133-2-0.211c-0.274-0.032-0.471-0.28-0.439-0.555c0.032-0.274,0.286-0.474,0.555-0.438
			c0.658,0.077,1.317,0.146,1.979,0.208c0.274,0.026,0.477,0.27,0.451,0.545C335.153,448.596,334.935,448.79,334.681,448.79z
			 M352.647,448.597c-0.25,0-0.466-0.188-0.496-0.443c-0.031-0.274,0.165-0.522,0.439-0.554c0.66-0.076,1.318-0.16,1.974-0.252
			c0.268-0.039,0.525,0.152,0.564,0.426c0.038,0.273-0.152,0.526-0.426,0.565c-0.663,0.093-1.329,0.178-1.997,0.255
			C352.686,448.596,352.667,448.597,352.647,448.597z M329.719,448.18c-0.025,0-0.052-0.002-0.077-0.006
			c-0.665-0.103-1.326-0.213-1.984-0.331c-0.272-0.049-0.453-0.309-0.404-0.581c0.048-0.271,0.315-0.452,0.58-0.404
			c0.65,0.117,1.304,0.225,1.961,0.327c0.273,0.042,0.46,0.297,0.418,0.57C330.174,448.003,329.961,448.18,329.719,448.18z
			 M357.598,447.874c-0.237,0-0.448-0.17-0.491-0.413c-0.049-0.272,0.133-0.531,0.404-0.58c0.655-0.117,1.307-0.241,1.955-0.372
			c0.265-0.056,0.534,0.119,0.59,0.39c0.055,0.271-0.12,0.535-0.391,0.589c-0.656,0.134-1.315,0.26-1.979,0.377
			C357.656,447.871,357.627,447.874,357.598,447.874z M324.806,447.266c-0.035,0-0.071-0.004-0.107-0.012
			c-0.657-0.145-1.312-0.297-1.96-0.457c-0.269-0.066-0.432-0.337-0.365-0.605c0.067-0.267,0.337-0.429,0.605-0.365
			c0.641,0.159,1.285,0.309,1.935,0.452c0.27,0.059,0.44,0.326,0.381,0.596C325.243,447.107,325.036,447.266,324.806,447.266z
			 M362.493,446.84c-0.226,0-0.43-0.152-0.485-0.38c-0.066-0.268,0.098-0.539,0.366-0.605c0.646-0.159,1.287-0.326,1.924-0.501
			c0.27-0.073,0.542,0.083,0.615,0.349c0.073,0.266-0.083,0.542-0.35,0.615c-0.647,0.178-1.296,0.347-1.951,0.508
			C362.572,446.835,362.532,446.84,362.493,446.84z M319.965,446.03c-0.046,0-0.094-0.006-0.141-0.02
			c-0.647-0.19-1.289-0.388-1.925-0.594c-0.263-0.085-0.406-0.368-0.321-0.63c0.085-0.262,0.37-0.405,0.63-0.321
			c0.626,0.204,1.26,0.399,1.897,0.585c0.265,0.078,0.417,0.355,0.339,0.621C320.381,445.889,320.182,446.03,319.965,446.03z
			 M367.304,445.477c-0.211,0-0.407-0.135-0.476-0.346c-0.085-0.263,0.059-0.544,0.322-0.629c0.632-0.205,1.259-0.418,1.877-0.639
			c0.261-0.092,0.547,0.042,0.64,0.302c0.093,0.26-0.042,0.546-0.302,0.639c-0.628,0.225-1.265,0.441-1.908,0.648
			C367.406,445.469,367.354,445.477,367.304,445.477z M315.223,444.449c-0.059,0-0.118-0.01-0.177-0.032
			c-0.632-0.238-1.257-0.486-1.874-0.742c-0.256-0.106-0.376-0.399-0.271-0.654c0.106-0.255,0.4-0.376,0.653-0.27
			c0.607,0.252,1.223,0.496,1.845,0.73c0.258,0.097,0.389,0.386,0.291,0.644C315.615,444.325,315.425,444.449,315.223,444.449z
			 M371.998,443.756c-0.196,0-0.383-0.116-0.462-0.309c-0.105-0.255,0.016-0.548,0.271-0.653c0.614-0.253,1.221-0.516,1.818-0.788
			c0.252-0.114,0.548-0.004,0.662,0.248c0.114,0.251,0.004,0.548-0.248,0.662c-0.607,0.277-1.225,0.544-1.852,0.803
			C372.126,443.744,372.061,443.756,371.998,443.756z M310.622,442.49c-0.072,0-0.147-0.016-0.216-0.049
			c-0.61-0.292-1.212-0.594-1.804-0.906c-0.244-0.128-0.338-0.431-0.209-0.675c0.129-0.244,0.43-0.338,0.676-0.21
			c0.58,0.306,1.17,0.602,1.769,0.888c0.249,0.119,0.355,0.418,0.235,0.667C310.987,442.385,310.809,442.49,310.622,442.49z
			 M376.528,441.647c-0.18,0-0.353-0.098-0.443-0.268c-0.128-0.245-0.033-0.547,0.212-0.675c0.589-0.308,1.167-0.626,1.735-0.952
			c0.236-0.139,0.543-0.057,0.683,0.184c0.138,0.239,0.056,0.545-0.185,0.683c-0.578,0.333-1.17,0.658-1.771,0.972
			C376.686,441.628,376.606,441.647,376.528,441.647z M306.225,440.117c-0.089,0-0.179-0.023-0.26-0.073
			c-0.586-0.356-1.155-0.719-1.705-1.087c-0.229-0.154-0.291-0.464-0.137-0.694c0.152-0.229,0.463-0.291,0.693-0.137
			c0.538,0.36,1.094,0.715,1.668,1.063c0.236,0.144,0.31,0.451,0.168,0.687C306.558,440.032,306.393,440.117,306.225,440.117z
			 M380.832,439.106c-0.161,0-0.32-0.078-0.416-0.223c-0.153-0.23-0.091-0.54,0.139-0.693c0.559-0.372,1.098-0.75,1.617-1.134
			c0.22-0.164,0.534-0.119,0.699,0.104c0.164,0.222,0.117,0.535-0.105,0.699c-0.531,0.393-1.084,0.781-1.656,1.162
			C381.024,439.079,380.928,439.106,380.832,439.106z M302.11,437.282c-0.108,0-0.217-0.035-0.309-0.106
			c-0.543-0.425-1.063-0.858-1.561-1.296c-0.207-0.183-0.227-0.499-0.044-0.706c0.182-0.207,0.497-0.228,0.706-0.044
			c0.482,0.426,0.988,0.846,1.516,1.259c0.217,0.17,0.255,0.485,0.085,0.702C302.405,437.216,302.259,437.282,302.11,437.282z
			 M384.808,436.081c-0.139,0-0.277-0.058-0.376-0.171c-0.183-0.208-0.161-0.523,0.047-0.706c0.504-0.44,0.984-0.888,1.441-1.34
			c0.196-0.193,0.513-0.192,0.707,0.003c0.194,0.196,0.192,0.513-0.004,0.707c-0.471,0.466-0.967,0.927-1.486,1.382
			C385.042,436.04,384.925,436.081,384.808,436.081z M298.416,433.921c-0.134,0-0.267-0.053-0.365-0.158
			c-0.474-0.507-0.924-1.022-1.338-1.534c-0.174-0.214-0.141-0.529,0.074-0.703c0.216-0.173,0.529-0.141,0.703,0.074
			c0.398,0.492,0.833,0.99,1.291,1.479c0.188,0.202,0.178,0.518-0.023,0.707C298.661,433.876,298.538,433.921,298.416,433.921z
			 M388.293,432.505c-0.111,0-0.224-0.037-0.316-0.113c-0.214-0.175-0.245-0.49-0.07-0.704c0.418-0.511,0.814-1.037,1.18-1.564
			c0.157-0.228,0.469-0.285,0.696-0.126c0.227,0.157,0.283,0.469,0.126,0.695c-0.38,0.548-0.793,1.096-1.229,1.627
			C388.581,432.442,388.438,432.505,388.293,432.505z M295.356,429.978c-0.166,0-0.329-0.083-0.424-0.234
			c-0.364-0.582-0.702-1.181-1.005-1.781c-0.124-0.247-0.025-0.547,0.221-0.671c0.244-0.125,0.548-0.026,0.672,0.221
			c0.289,0.573,0.612,1.145,0.96,1.7c0.146,0.234,0.075,0.543-0.158,0.689C295.539,429.953,295.447,429.978,295.356,429.978z
			 M391.041,428.341c-0.077,0-0.155-0.018-0.227-0.055c-0.246-0.126-0.344-0.427-0.218-0.673c0.298-0.583,0.567-1.18,0.801-1.776
			c0.101-0.258,0.388-0.384,0.648-0.284c0.257,0.101,0.384,0.391,0.283,0.648c-0.246,0.627-0.529,1.256-0.842,1.867
			C391.397,428.242,391.223,428.341,391.041,428.341z M293.228,425.469c-0.211,0-0.407-0.134-0.476-0.346
			c-0.214-0.658-0.391-1.326-0.526-1.985c-0.055-0.271,0.119-0.535,0.39-0.59c0.267-0.052,0.535,0.118,0.591,0.389
			c0.128,0.623,0.295,1.255,0.497,1.878c0.085,0.263-0.059,0.544-0.321,0.63C293.332,425.461,293.279,425.469,293.228,425.469z
			 M392.728,423.65c-0.035,0-0.07-0.003-0.105-0.011c-0.27-0.058-0.443-0.323-0.386-0.593c0.136-0.637,0.235-1.283,0.295-1.919
			c0.026-0.275,0.288-0.48,0.545-0.45c0.275,0.026,0.477,0.27,0.451,0.545c-0.064,0.674-0.169,1.357-0.313,2.032
			C393.166,423.489,392.958,423.65,392.728,423.65z M292.369,420.562c-0.27,0-0.491-0.214-0.5-0.485
			c-0.005-0.165-0.007-0.331-0.007-0.496c0-0.518,0.023-1.043,0.069-1.56c0.024-0.276,0.288-0.483,0.542-0.454
			c0.275,0.024,0.478,0.267,0.454,0.543c-0.043,0.488-0.065,0.983-0.065,1.471c0,0.156,0.002,0.311,0.007,0.466
			c0.008,0.276-0.209,0.506-0.484,0.515C292.379,420.562,292.374,420.562,292.369,420.562z M393.047,418.68
			c-0.257,0-0.476-0.198-0.497-0.459c-0.053-0.636-0.145-1.282-0.272-1.921c-0.055-0.271,0.121-0.534,0.392-0.588
			c0.265-0.055,0.534,0.121,0.589,0.392c0.136,0.676,0.232,1.36,0.288,2.035c0.023,0.275-0.182,0.517-0.457,0.539
			C393.075,418.679,393.061,418.68,393.047,418.68z M292.956,415.616c-0.042,0-0.086-0.005-0.129-0.017
			c-0.267-0.071-0.426-0.345-0.354-0.612c0.174-0.648,0.388-1.305,0.637-1.951c0.1-0.257,0.389-0.388,0.646-0.286
			c0.258,0.099,0.386,0.389,0.287,0.647c-0.237,0.613-0.44,1.234-0.603,1.848C293.38,415.469,293.178,415.616,292.956,415.616z
			 M391.933,413.824c-0.201,0-0.392-0.122-0.468-0.322c-0.228-0.6-0.491-1.2-0.783-1.784c-0.123-0.247-0.023-0.547,0.224-0.671
			c0.248-0.122,0.547-0.024,0.671,0.224c0.307,0.613,0.584,1.244,0.824,1.876c0.098,0.258-0.032,0.547-0.29,0.645
			C392.052,413.814,391.992,413.824,391.933,413.824z M294.863,411.011c-0.084,0-0.169-0.021-0.246-0.065
			c-0.24-0.136-0.325-0.441-0.189-0.681c0.327-0.577,0.691-1.159,1.085-1.731c0.158-0.229,0.471-0.285,0.695-0.128
			c0.227,0.157,0.285,0.468,0.129,0.696c-0.377,0.547-0.727,1.104-1.038,1.656C295.206,410.92,295.037,411.011,294.863,411.011z
			 M389.607,409.413c-0.159,0-0.316-0.076-0.413-0.218c-0.358-0.526-0.752-1.055-1.168-1.573c-0.173-0.215-0.139-0.53,0.076-0.703
			c0.215-0.171,0.53-0.14,0.703,0.076c0.433,0.538,0.842,1.088,1.215,1.636c0.155,0.228,0.097,0.54-0.132,0.695
			C389.803,409.384,389.705,409.413,389.607,409.413z M297.77,406.955c-0.117,0-0.234-0.041-0.329-0.124
			c-0.208-0.182-0.228-0.498-0.047-0.706c0.439-0.501,0.908-1,1.393-1.482c0.196-0.195,0.513-0.194,0.707,0.002
			c0.194,0.196,0.193,0.513-0.002,0.707c-0.469,0.466-0.921,0.947-1.346,1.432C298.047,406.897,297.908,406.955,297.77,406.955z
			 M386.411,405.579c-0.128,0-0.256-0.049-0.354-0.147c-0.455-0.456-0.934-0.906-1.434-1.349c-0.207-0.183-0.227-0.499-0.043-0.706
			c0.183-0.208,0.499-0.226,0.705-0.043c0.518,0.458,1.01,0.922,1.478,1.392c0.195,0.195,0.195,0.512,0,0.707
			C386.667,405.53,386.539,405.579,386.411,405.579z M301.36,403.483c-0.144,0-0.286-0.061-0.385-0.181
			c-0.177-0.212-0.147-0.528,0.065-0.704c0.51-0.423,1.041-0.84,1.595-1.25c0.223-0.163,0.536-0.118,0.699,0.104
			c0.165,0.222,0.118,0.535-0.104,0.7c-0.538,0.399-1.056,0.805-1.552,1.216C301.586,403.446,301.474,403.483,301.36,403.483z
			 M382.627,402.319c-0.105,0-0.209-0.032-0.299-0.1c-0.518-0.387-1.056-0.767-1.611-1.142c-0.229-0.154-0.29-0.465-0.136-0.694
			c0.155-0.229,0.467-0.287,0.694-0.135c0.569,0.383,1.12,0.773,1.65,1.17c0.222,0.165,0.267,0.479,0.102,0.7
			C382.93,402.25,382.779,402.319,382.627,402.319z M305.406,400.552c-0.165,0-0.326-0.082-0.422-0.231
			c-0.148-0.233-0.079-0.542,0.153-0.69c0.558-0.355,1.135-0.704,1.729-1.047c0.238-0.138,0.545-0.057,0.683,0.183
			c0.139,0.239,0.057,0.545-0.183,0.683c-0.582,0.336-1.146,0.678-1.691,1.025C305.592,400.527,305.499,400.552,305.406,400.552z
			 M378.451,399.574c-0.085,0-0.17-0.022-0.249-0.066l-0.104-0.06c-0.532-0.308-1.076-0.608-1.628-0.9
			c-0.244-0.129-0.338-0.432-0.209-0.676c0.13-0.245,0.434-0.337,0.676-0.208c0.564,0.298,1.119,0.605,1.665,0.92l0.099,0.057
			c0.239,0.137,0.322,0.443,0.185,0.682C378.793,399.483,378.624,399.574,378.451,399.574z M309.012,398.477
			c-0.18,0-0.354-0.098-0.443-0.269c-0.128-0.245-0.032-0.547,0.213-0.674c0.593-0.309,1.195-0.609,1.808-0.899
			c0.245-0.118,0.547-0.013,0.666,0.237c0.118,0.249,0.012,0.548-0.238,0.666c-0.601,0.285-1.191,0.579-1.774,0.882
			C309.169,398.458,309.09,398.477,309.012,398.477z M374.011,397.28c-0.07,0-0.141-0.015-0.208-0.045
			c-0.598-0.274-1.204-0.539-1.816-0.794c-0.255-0.106-0.375-0.399-0.27-0.654c0.106-0.255,0.402-0.376,0.654-0.269
			c0.624,0.26,1.24,0.529,1.848,0.808c0.251,0.115,0.361,0.412,0.246,0.663C374.381,397.172,374.2,397.28,374.011,397.28z
			 M313.547,396.373c-0.196,0-0.383-0.117-0.462-0.309c-0.105-0.255,0.016-0.547,0.271-0.653c0.617-0.254,1.244-0.5,1.877-0.736
			c0.256-0.097,0.547,0.034,0.644,0.294c0.097,0.259-0.035,0.547-0.294,0.643c-0.623,0.232-1.238,0.474-1.846,0.725
			C313.675,396.361,313.61,396.373,313.547,396.373z M369.382,395.394c-0.057,0-0.113-0.009-0.17-0.03
			c-0.619-0.223-1.245-0.438-1.877-0.644c-0.263-0.086-0.405-0.368-0.32-0.63c0.086-0.262,0.365-0.407,0.631-0.321
			c0.642,0.209,1.277,0.427,1.906,0.654c0.26,0.094,0.395,0.38,0.301,0.64C369.778,395.267,369.587,395.394,369.382,395.394z
			 M318.242,394.659c-0.211,0-0.407-0.135-0.476-0.347c-0.085-0.263,0.06-0.544,0.322-0.629c0.636-0.205,1.278-0.401,1.927-0.588
			c0.263-0.076,0.542,0.076,0.619,0.342c0.076,0.265-0.076,0.543-0.342,0.619c-0.639,0.185-1.271,0.378-1.897,0.58
			C318.345,394.651,318.293,394.659,318.242,394.659z M364.619,393.878c-0.044,0-0.089-0.006-0.134-0.018
			c-0.636-0.177-1.275-0.345-1.92-0.505c-0.268-0.066-0.432-0.338-0.365-0.606c0.066-0.267,0.337-0.429,0.605-0.365
			c0.654,0.162,1.304,0.333,1.947,0.513c0.267,0.074,0.422,0.35,0.348,0.616C365.039,393.733,364.838,393.878,364.619,393.878z
			 M323.054,393.302c-0.226,0-0.43-0.153-0.485-0.381c-0.066-0.269,0.098-0.539,0.366-0.605c0.65-0.159,1.305-0.31,1.964-0.453
			c0.267-0.056,0.535,0.113,0.594,0.383c0.059,0.27-0.112,0.536-0.383,0.595c-0.649,0.141-1.296,0.29-1.936,0.447
			C323.133,393.297,323.093,393.302,323.054,393.302z M359.765,392.704c-0.034,0-0.068-0.003-0.102-0.01
			c-0.647-0.134-1.296-0.26-1.95-0.378c-0.272-0.049-0.452-0.309-0.403-0.581c0.049-0.273,0.311-0.452,0.581-0.403
			c0.662,0.12,1.321,0.247,1.976,0.382c0.271,0.056,0.444,0.321,0.388,0.591C360.204,392.541,359.996,392.704,359.765,392.704z
			 M327.949,392.273c-0.238,0-0.449-0.171-0.491-0.413c-0.048-0.272,0.134-0.531,0.405-0.579c0.659-0.116,1.321-0.224,1.986-0.325
			c0.273-0.037,0.528,0.146,0.569,0.419c0.042,0.273-0.146,0.528-0.419,0.569c-0.657,0.1-1.311,0.207-1.963,0.322
			C328.008,392.271,327.978,392.273,327.949,392.273z M354.842,391.846c-0.023,0-0.048-0.001-0.071-0.005
			c-0.654-0.093-1.311-0.179-1.972-0.256c-0.274-0.032-0.471-0.281-0.438-0.555c0.031-0.274,0.286-0.472,0.555-0.438
			c0.668,0.079,1.333,0.165,1.995,0.259c0.273,0.039,0.464,0.292,0.425,0.565C355.301,391.666,355.086,391.846,354.842,391.846z
			 M332.897,391.555c-0.25,0-0.467-0.188-0.496-0.443c-0.031-0.274,0.166-0.522,0.44-0.553c0.666-0.076,1.334-0.145,2.003-0.205
			c0.272-0.03,0.518,0.177,0.543,0.453c0.024,0.275-0.178,0.518-0.453,0.543c-0.661,0.06-1.321,0.127-1.979,0.202
			C332.935,391.554,332.917,391.555,332.897,391.555z M349.874,391.29c-0.015,0-0.028,0-0.042-0.001
			c-0.659-0.055-1.32-0.101-1.983-0.14c-0.275-0.016-0.486-0.252-0.47-0.528c0.016-0.275,0.251-0.481,0.528-0.47
			c0.671,0.039,1.34,0.086,2.007,0.141c0.275,0.023,0.48,0.265,0.457,0.54C350.35,391.092,350.131,391.29,349.874,391.29z
			 M337.882,391.132c-0.264,0-0.484-0.206-0.499-0.472c-0.016-0.276,0.195-0.512,0.472-0.527c0.67-0.038,1.34-0.067,2.011-0.088
			c0.272-0.029,0.507,0.208,0.516,0.483c0.009,0.276-0.208,0.507-0.484,0.516c-0.663,0.021-1.325,0.051-1.987,0.087
			C337.9,391.132,337.891,391.132,337.882,391.132z M344.881,391.024c-0.004,0-0.008,0-0.012,0
			c-0.663-0.016-1.326-0.025-1.989-0.026c-0.276-0.001-0.499-0.225-0.499-0.501c0-0.276,0.225-0.499,0.5-0.499c0,0,0,0,0.001,0
			c0.671,0.001,1.342,0.01,2.011,0.026c0.276,0.007,0.495,0.236,0.488,0.512C345.374,390.809,345.151,391.024,344.881,391.024z"/>
	</g>
	<g id="Circle_14_">
		
			<ellipse id="Circle_5_" transform="matrix(0.866 -0.5 0.5 0.866 11.8872 226.8129)" style="fill:#BA68C8;" cx="429.177" cy="91.225" rx="23.368" ry="40.474"/>
		<g id="Circle_10_" style="opacity:0.7;">
			
				<ellipse transform="matrix(0.866 -0.5 0.5 0.866 11.8872 226.8129)" style="fill:#FFFFFF;" cx="429.177" cy="91.225" rx="23.368" ry="40.474"/>
		</g>
	</g>
	<g id="Circle_12_">
		<path id="Circle_4_" style="fill:#BA68C8;" d="M461.063,138.482c7.636,4.409,13.826,0.835,13.826-7.982
			c0-8.817-6.19-19.539-13.826-23.947c-7.636-4.408-13.826-0.835-13.826,7.982C447.237,123.352,453.427,134.074,461.063,138.482z"/>
		<g id="Circle_9_" style="opacity:0.5;">
			<path style="fill:#FFFFFF;" d="M461.063,138.482c7.636,4.409,13.826,0.835,13.826-7.982c0-8.817-6.19-19.539-13.826-23.947
				c-7.636-4.408-13.826-0.835-13.826,7.982C447.237,123.352,453.427,134.074,461.063,138.482z"/>
		</g>
	</g>
	<g id="Circle_6_">
		<path style="fill:#455A64;" d="M304.457,84.04c-1.671,0-3.513-0.554-5.412-1.65c-6.51-3.759-11.807-12.932-11.807-20.449
			c0-3.75,1.291-6.561,3.635-7.915c2.345-1.353,5.425-1.064,8.672,0.81c6.51,3.758,11.806,12.932,11.806,20.449
			c0,3.75-1.291,6.562-3.635,7.914C306.743,83.76,305.643,84.04,304.457,84.04z M294.136,54.186c-1.014,0-1.945,0.234-2.763,0.706
			c-2.021,1.167-3.135,3.67-3.135,7.048c0,7.199,5.072,15.984,11.307,19.583l0,0c2.926,1.689,5.648,1.976,7.671,0.81
			c2.022-1.167,3.135-3.67,3.135-7.048c0-7.199-5.071-15.984-11.306-19.583C297.302,54.695,295.63,54.186,294.136,54.186z"/>
	</g>
	<g id="Circle_2_">
		<path style="fill:#455A64;" d="M238.868,437.147c-29.694,0-59.388-6.526-81.994-19.577c-21.996-12.7-34.109-29.614-34.109-47.629
			c0-18.014,12.114-34.929,34.109-47.628c45.212-26.103,118.776-26.103,163.988,0c21.996,12.7,34.109,29.614,34.109,47.628
			c0,18.015-12.113,34.929-34.109,47.629C298.256,430.621,268.561,437.147,238.868,437.147z M238.868,303.72
			c-29.513,0-59.026,6.486-81.494,19.458c-21.673,12.513-33.609,29.121-33.609,46.762c0,17.642,11.936,34.25,33.609,46.763
			c44.937,25.944,118.052,25.944,162.988,0c21.673-12.513,33.609-29.121,33.609-46.763c0-17.642-11.936-34.249-33.609-46.762
			C297.894,310.207,268.381,303.72,238.868,303.72z"/>
	</g>
</g>
<g id="Compass_1_">
	<g id="Compass">
		<g>
			<g>
				<path id="XMLID_965_" style="fill:#BA68C8;" d="M303.946,249.505c-0.677,0-1.361-0.208-1.948-0.641
					c-1.466-1.077-1.779-3.138-0.701-4.603c3.772-5.126,7.161-10.641,10.071-16.391c0.819-1.623,2.797-2.271,4.424-1.451
					c1.622,0.821,2.272,2.802,1.449,4.424c-3.073,6.074-6.655,11.901-10.641,17.321
					C305.954,249.041,304.958,249.505,303.946,249.505z"/>
				<g id="XMLID_358_" style="opacity:0.6;">
					<path style="fill:#FFFFFF;" d="M303.946,249.505c-0.677,0-1.361-0.208-1.948-0.641c-1.466-1.077-1.779-3.138-0.701-4.603
						c3.772-5.126,7.161-10.641,10.071-16.391c0.819-1.623,2.797-2.271,4.424-1.451c1.622,0.821,2.272,2.802,1.449,4.424
						c-3.073,6.074-6.655,11.901-10.641,17.321C305.954,249.041,304.958,249.505,303.946,249.505z"/>
				</g>
				<path style="opacity:0.1;" d="M306.599,248.164c3.986-5.419,7.568-11.247,10.641-17.321c0.823-1.621,0.174-3.603-1.449-4.424
					c-1.053-0.531-2.249-0.439-3.186,0.127c1.532,0.177,3.468,1.117,1.789,5.122c-1.449,3.457-2.567,6.18-11.541,17.643
					c0.355,0.126,0.724,0.193,1.092,0.193C304.958,249.505,305.954,249.041,306.599,248.164z"/>
			</g>
			<g>
				<polygon id="XMLID_968_" style="fill:#BA68C8;" points="322.833,324.277 319.933,307.582 314.305,308.895 				"/>
				<path id="XMLID_953_" style="fill:#263238;" d="M316.599,310.384L277.82,198.552l-8.914-5.174l35.41,102.132
					C306.488,301.784,310.849,307.065,316.599,310.384L316.599,310.384z"/>
				<path id="XMLID_950_" style="fill:#37474F;" d="M316.599,310.384L316.599,310.384c5.175-2.988,7.502-9.228,5.546-14.874
					l-35.4-102.074l-8.925,5.116L316.599,310.384z"/>
				<path id="XMLID_949_" style="fill:#455A64;" d="M322.145,295.51l-35.4-102.074l-3.119,1.788
					c8.196,22.374,36.449,100.263,36.449,105.298c0,6.016-3.476,9.863-3.476,9.863C321.774,307.397,324.101,301.157,322.145,295.51z
					"/>
			</g>
			<g>
				<path style="fill:#BA68C8;" d="M295.133,260.833c-0.06,0.38-0.17,0.69-0.32,0.93c-0.01,0.01-0.02,0.03-0.03,0.04
					c-0.13,0.13-0.26,0.26-0.39,0.38c-1.84,1.78-3.72,3.47-5.61,5.02c-0.62,0.51-1.36,0.75-2.09,0.75c-0.95,0-1.9-0.41-2.55-1.2
					c-1.15-1.41-0.95-3.48,0.46-4.63c2.17-1.8,4.34-3.77,6.45-5.87c0.04-0.05,0.09-0.09,0.14-0.13c0.08-0.07,0.15-0.14,0.24-0.2
					c0.51-0.34,1.21-0.26,1.93,0.32C294.583,257.223,295.373,259.283,295.133,260.833z"/>
				<g style="opacity:0.6;">
					<path style="fill:#FFFFFF;" d="M295.133,260.833c-0.06,0.38-0.17,0.69-0.32,0.93c-0.01,0.01-0.02,0.03-0.03,0.04
						c-0.13,0.13-0.26,0.26-0.39,0.38c-1.84,1.78-3.72,3.47-5.61,5.02c-0.62,0.51-1.36,0.75-2.09,0.75c-0.95,0-1.9-0.41-2.55-1.2
						c-1.15-1.41-0.95-3.48,0.46-4.63c2.17-1.8,4.34-3.77,6.45-5.87c0.04-0.05,0.09-0.09,0.14-0.13c0.08-0.07,0.15-0.14,0.24-0.2
						c0.51-0.34,1.21-0.26,1.93,0.32C294.583,257.223,295.373,259.283,295.133,260.833z"/>
				</g>
				<path style="opacity:0.1;" d="M285.27,267.628c0.448,0.213,0.934,0.325,1.422,0.325c0.73,0,1.47-0.24,2.09-0.75
					c1.89-1.55,3.77-3.24,5.61-5.02c0.13-0.12,0.26-0.25,0.39-0.38c0.01-0.01,0.02-0.03,0.03-0.04c0.15-0.24,0.26-0.55,0.32-0.93
					c0.096-0.62,0.022-1.32-0.174-2.001C291.873,262.142,288.608,265.086,285.27,267.628z"/>
			</g>
			<g>
				<path id="XMLID_934_" style="fill:#BA68C8;" d="M289.121,276.039c0.883-5.616-1.986-13.066-6.408-16.639
					c-2.206-1.782-4.38-2.261-6.116-1.599l-0.001-0.004l-4.886,1.915l1.384,3.563c-0.797,5.577,2.027,12.874,6.381,16.424
					l1.366,3.515l4.788-1.877c0.011-0.004,0.022-0.009,0.032-0.013l0.065-0.025l-0.004-0.01
					C287.419,280.594,288.686,278.802,289.121,276.039z"/>
				<g id="XMLID_259_" style="opacity:0.2;">
					<path d="M289.121,276.039c0.883-5.616-1.986-13.066-6.408-16.639c-2.206-1.782-4.38-2.261-6.116-1.599l-0.001-0.004
						l-4.886,1.915l1.384,3.563c-0.797,5.577,2.027,12.874,6.381,16.424l1.366,3.515l4.788-1.877
						c0.011-0.004,0.022-0.009,0.032-0.013l0.065-0.025l-0.004-0.01C287.419,280.594,288.686,278.802,289.121,276.039z"/>
				</g>
				<g>
					<path id="XMLID_916_" style="fill:#BA68C8;" d="M277.905,261.282c4.422,3.573,7.291,11.022,6.408,16.639
						c-0.883,5.616-5.184,7.272-9.606,3.699c-4.422-3.573-7.291-11.022-6.408-16.639
						C269.181,259.365,273.482,257.709,277.905,261.282z"/>
				</g>
				<g style="opacity:0.35;">
					<path d="M277.905,261.282c4.422,3.573,7.291,11.022,6.408,16.639c-0.883,5.616-5.184,7.272-9.606,3.699
						c-4.422-3.573-7.291-11.022-6.408-16.639C269.181,259.365,273.482,257.709,277.905,261.282z"/>
				</g>
			</g>
			<g>
				<path style="fill:#BA68C8;" d="M277.893,273.883c-0.09,0.57-0.32,0.99-0.63,1.23c-0.09,0.07-0.19,0.12-0.28,0.16
					c-4.57,2.53-9.11,4.34-13.49,5.39c-0.26,0.07-0.52,0.1-0.77,0.1c-1.49,0-2.84-1.02-3.2-2.53c-0.43-1.77,0.66-3.54,2.43-3.97
					c3.98-0.95,8.15-2.65,12.38-5.05c0.07-0.06,0.15-0.1,0.23-0.13c0.47-0.19,1.05-0.07,1.64,0.41
					C277.373,270.432,278.133,272.402,277.893,273.883z"/>
				<g style="opacity:0.6;">
					<path style="fill:#FFFFFF;" d="M277.893,273.883c-0.09,0.57-0.32,0.99-0.63,1.23c-0.09,0.07-0.19,0.12-0.28,0.16
						c-4.57,2.53-9.11,4.34-13.49,5.39c-0.26,0.07-0.52,0.1-0.77,0.1c-1.49,0-2.84-1.02-3.2-2.53c-0.43-1.77,0.66-3.54,2.43-3.97
						c3.98-0.95,8.15-2.65,12.38-5.05c0.07-0.06,0.15-0.1,0.23-0.13c0.47-0.19,1.05-0.07,1.64,0.41
						C277.373,270.432,278.133,272.402,277.893,273.883z"/>
				</g>
				<path style="opacity:0.1;" d="M277.263,275.112c0.31-0.24,0.54-0.66,0.63-1.23c0.066-0.406,0.05-0.849-0.022-1.297
					c-6.307,3.69-12.499,5.985-17.778,6.844c0.614,0.823,1.583,1.333,2.63,1.333c0.25,0,0.51-0.03,0.77-0.1
					c4.38-1.05,8.92-2.86,13.49-5.39C277.073,275.233,277.173,275.182,277.263,275.112z"/>
			</g>
			<g>
				<polygon id="XMLID_864_" style="fill:#BA68C8;" points="239.782,348.936 238.867,369.941 245.446,349.182 				"/>
				<path id="XMLID_863_" style="fill:#455A64;" d="M268.164,198.242l-25.711,152.844l0,0c5.75-2.994,9.762-8.512,10.837-14.905
					l24.006-142.744L268.164,198.242z"/>
				<path id="XMLID_862_" style="fill:#37474F;" d="M242.453,351.086L242.453,351.086c-5.262-3.352-8.007-9.529-6.966-15.681
					l24.118-142.681l8.559,5.518L242.453,351.086z"/>
				<path id="XMLID_861_" style="fill:#263238;" d="M238.867,337.996c0.387-6.656,21.993-124.058,25.378-142.281l-4.64-2.992
					l-24.118,142.681c-1.04,6.152,1.704,12.328,6.966,15.681C242.451,351.082,238.445,345.267,238.867,337.996z"/>
			</g>
			<g>
				<g id="XMLID_328_">
					<path id="XMLID_3_" style="fill:#BA68C8;" d="M248.29,281.062c-0.249,0-0.504-0.029-0.757-0.089
						c-4.094-0.964-7.786-2.784-10.98-5.409c-2.563-2.108-4.782-4.721-6.59-7.766c-0.928-1.564-0.414-3.583,1.151-4.512
						c1.563-0.924,3.584-0.413,4.512,1.149c1.417,2.388,3.135,4.421,5.109,6.043c2.409,1.979,5.204,3.354,8.307,4.086
						c1.77,0.417,2.868,2.189,2.45,3.96C251.134,280.04,249.784,281.062,248.29,281.062z"/>
				</g>
				<g id="XMLID_946_" style="opacity:0.6;">
					<path style="fill:#FFFFFF;" d="M248.29,281.062c-0.249,0-0.504-0.029-0.757-0.089c-4.094-0.964-7.786-2.784-10.98-5.409
						c-2.563-2.108-4.782-4.721-6.59-7.766c-0.928-1.564-0.414-3.583,1.151-4.512c1.563-0.924,3.584-0.413,4.512,1.149
						c1.417,2.388,3.135,4.421,5.109,6.043c2.409,1.979,5.204,3.354,8.307,4.086c1.77,0.417,2.868,2.189,2.45,3.96
						C251.134,280.04,249.784,281.062,248.29,281.062z"/>
				</g>
				<path style="opacity:0.1;" d="M236.554,275.565c3.194,2.624,6.886,4.444,10.98,5.408c0.253,0.06,0.508,0.089,0.757,0.089
					c1.102,0,2.124-0.559,2.729-1.46c-7.857-1.006-12.671-4.942-15.984-9.075c-3.835-4.785-5.296-3.908-5.072-2.728
					C231.772,270.843,233.991,273.457,236.554,275.565z"/>
			</g>
		</g>
		<g style="opacity:0.2;">
			<path d="M286.745,193.436l-8.925,5.116l-1.26-0.732l0.737-4.384l-4.348,2.288l-4.043-2.346l1.312,3.783l-2.054,1.081
				l-8.559-5.518l-2.036,12.047l11.338,6.546c0,0,0.001,0.001,0.002,0.001l0.002,0.001v0c1.472,0.849,3.253,1.152,5.23,0.892
				l0.423-2.517l0.795,2.293c1.332-0.323,2.736-0.882,4.193-1.723c3.687-2.129,7.061-5.613,9.678-9.665L286.745,193.436z"/>
		</g>
		<g>
			<g>
				<path id="XMLID_858_" style="fill:#BA68C8;" d="M275.268,161.098l-0.005,0.009c-2.733-1.654-6.543-1.467-10.765,0.97
					c-8.313,4.8-15.052,16.472-15.052,26.071c0,4.836,1.713,8.219,4.474,9.775l-0.003,0.005l14.992,8.656l21.141-36.952
					L275.268,161.098z"/>
				<g id="XMLID_334_" style="opacity:0.3;">
					<path style="fill:#FFFFFF;" d="M275.268,161.098l-0.005,0.009c-2.733-1.654-6.543-1.467-10.765,0.97
						c-8.313,4.8-15.052,16.472-15.052,26.071c0,4.836,1.713,8.219,4.474,9.775l-0.003,0.005l14.992,8.656l21.141-36.952
						L275.268,161.098z"/>
				</g>
				<g id="XMLID_855_" style="opacity:0.2;">
					<path d="M268.91,206.585l1.822-3.185l-0.983-2.561c0,0-8.667-2.735-12.293-7.688c-3.728-5.092-5.103-14.003-3.263-20.386
						c-2.916,4.853-4.746,10.395-4.746,15.384c0,4.836,1.713,8.219,4.474,9.775l-0.003,0.005L268.91,206.585z"/>
				</g>
				<g id="XMLID_357_" style="opacity:0.5;">
					<path style="fill:#FFFFFF;" d="M268.91,206.585l-2.819-1.628c0,0-5.793-6.784-1.592-17.99
						c5.251-14.007,16.122-22.009,25.553-17.335L268.91,206.585z"/>
				</g>
				
					<ellipse id="XMLID_347_" transform="matrix(0.5 -0.866 0.866 0.5 -23.1653 336.1736)" style="fill:#BA68C8;" cx="279.55" cy="188.148" rx="21.287" ry="12.29"/>
			</g>
			<g>
				<path id="XMLID_338_" style="fill:#37474F;" d="M279.551,194.173c2.891-1.661,5.234-5.713,5.234-9.05
					c0-3.338-2.343-4.69-5.234-3.021c-2.891,1.669-5.234,5.721-5.234,9.05C274.316,194.48,276.66,195.833,279.551,194.173z"/>
				<path style="fill:#263238;" d="M281.962,181.392c-0.722-0.017-1.541,0.207-2.412,0.709c-2.891,1.669-5.234,5.721-5.234,9.05
					c0,0.981,0.208,1.785,0.569,2.396c0.722,0.018,1.541-0.204,2.411-0.704c2.891-1.661,5.234-5.713,5.234-9.05
					C282.531,182.81,282.323,182.004,281.962,181.392z"/>
			</g>
		</g>
		<g>
			<path id="XMLID_336_" style="fill:#37474F;" d="M277.346,144.696c0-2.939-2.383-5.322-5.322-5.322
				c-2.939,0-5.322,2.383-5.322,5.322l0,0.001h0v21.725h0c0,0.786,0.519,1.573,1.559,2.173c2.078,1.2,5.448,1.2,7.526,0
				c1.039-0.6,1.559-1.387,1.559-2.173v-21.725L277.346,144.696z"/>
			<path id="XMLID_291_" style="fill:#263238;" d="M272.024,139.374c-2.939,0-5.322,2.383-5.322,5.322l0,0.001h0v21.725h0
				c0,0.786,0.519,1.573,1.559,2.173c1.105,0.638,2.574,0.926,4.021,0.886c0-4.458,0-16.146,0-18.389
				c0-2.783,0.202-4.425-1.55-6.452C268.98,142.612,269.861,139.839,272.024,139.374z"/>
			<path id="XMLID_283_" style="fill:#455A64;" d="M275.806,147.222c0,3.92,0,15.978,0,21.359c1.025-0.599,1.54-1.379,1.539-2.16
				v-21.725l0-0.001c0-2.939-2.383-5.322-5.322-5.322C274.705,140.122,275.806,142.12,275.806,147.222z"/>
		</g>
	</g>
</g>
<g id="Symbol">
	<g id="Pi">
		<g>
			<g id="XMLID_987_">
				<path style="fill:#BA68C8;" d="M119.753,208.003l-18.834,10.874c-0.925,15.102-1.822,27.561-2.691,37.374
					c-0.87,9.816-1.712,18.311-2.527,25.485c-0.815,7.175-1.659,13.769-2.527,19.777c-0.707,4.686-1.741,8.634-3.099,11.845
					c-1.359,3.212-3.371,6.059-6.034,8.538c-2.174,1.979-4.335,2.647-6.482,2.003c-2.147-0.646-3.438-2.146-3.873-4.504
					c-0.325-1.769-0.408-3.369-0.244-4.806c0.163-1.434,0.461-2.857,0.897-4.268c0.435-1.409,0.924-2.743,1.467-4
					c0.544-1.255,1.114-2.527,1.713-3.816c0.162-0.382,1.1-2.41,2.813-6.081c1.712-3.669,3.003-6.859,3.873-9.573
					c0.868-2.712,1.413-5.472,1.631-8.28l4.892-53.81l-7.909,4.566c-2.229,1.287-4.349,3.217-6.359,5.792
					c-2.012,2.575-3.561,5.118-4.648,7.63l-3.506,8.982l-2.853,1.647c0.761-3.265,1.712-7.202,2.853-11.812
					c1.142-4.609,2.718-9.342,4.729-14.199c1.576-4.026,3.696-7.95,6.36-11.771c2.662-3.82,5.761-6.75,9.294-8.79l62.292-35.964
					v19.133l-21.036,12.145c-1.359,18.107-2.039,35.929-2.039,53.467c0,3.19,0.408,6.07,1.223,8.644
					c0.815,2.572,1.821,4.313,3.016,5.216c1.521,1.007,3.384,1.144,5.586,0.417c2.201-0.727,4.444-2.946,6.726-6.655
					c1.251-2.027,2.161-4.037,2.732-6.034c0.571-1.996,0.938-3.803,1.101-5.419s0.326-3.232,0.489-4.848l3.506-2.024
					c-0.055,6.048-0.734,11.857-2.039,17.429c-1.304,5.574-2.853,10.344-4.647,14.315c-1.794,3.971-3.561,7.111-5.299,9.419
					c-1.958,2.723-4.241,5.003-6.849,6.835c-2.61,1.833-5.002,2.399-7.176,1.697c-3.587-1.408-6.305-5.31-8.153-11.708
					c-1.032-3.752-1.617-9.158-1.753-16.219c-0.136-7.059,0.041-14.137,0.53-21.233L119.753,208.003z"/>
			</g>
			<g id="XMLID_940_" style="opacity:0.2;">
				<path style="fill:#FFFFFF;" d="M119.753,208.003l-18.834,10.874c-0.925,15.102-1.822,27.561-2.691,37.374
					c-0.87,9.816-1.712,18.311-2.527,25.485c-0.815,7.175-1.659,13.769-2.527,19.777c-0.707,4.686-1.741,8.634-3.099,11.845
					c-1.359,3.212-3.371,6.059-6.034,8.538c-2.174,1.979-4.335,2.647-6.482,2.003c-2.147-0.646-3.438-2.146-3.873-4.504
					c-0.325-1.769-0.408-3.369-0.244-4.806c0.163-1.434,0.461-2.857,0.897-4.268c0.435-1.409,0.924-2.743,1.467-4
					c0.544-1.255,1.114-2.527,1.713-3.816c0.162-0.382,1.1-2.41,2.813-6.081c1.712-3.669,3.003-6.859,3.873-9.573
					c0.868-2.712,1.413-5.472,1.631-8.28l4.892-53.81l-7.909,4.566c-2.229,1.287-4.349,3.217-6.359,5.792
					c-2.012,2.575-3.561,5.118-4.648,7.63l-3.506,8.982l-2.853,1.647c0.761-3.265,1.712-7.202,2.853-11.812
					c1.142-4.609,2.718-9.342,4.729-14.199c1.576-4.026,3.696-7.95,6.36-11.771c2.662-3.82,5.761-6.75,9.294-8.79l62.292-35.964
					v19.133l-21.036,12.145c-1.359,18.107-2.039,35.929-2.039,53.467c0,3.19,0.408,6.07,1.223,8.644
					c0.815,2.572,1.821,4.313,3.016,5.216c1.521,1.007,3.384,1.144,5.586,0.417c2.201-0.727,4.444-2.946,6.726-6.655
					c1.251-2.027,2.161-4.037,2.732-6.034c0.571-1.996,0.938-3.803,1.101-5.419s0.326-3.232,0.489-4.848l3.506-2.024
					c-0.055,6.048-0.734,11.857-2.039,17.429c-1.304,5.574-2.853,10.344-4.647,14.315c-1.794,3.971-3.561,7.111-5.299,9.419
					c-1.958,2.723-4.241,5.003-6.849,6.835c-2.61,1.833-5.002,2.399-7.176,1.697c-3.587-1.408-6.305-5.31-8.153-11.708
					c-1.032-3.752-1.617-9.158-1.753-16.219c-0.136-7.059,0.041-14.137,0.53-21.233L119.753,208.003z"/>
			</g>
		</g>
		<g>
			<path id="XMLID_985_" style="fill:#BA68C8;" d="M139.936,164.463l-62.292,35.964c-3.533,2.04-6.632,4.97-9.294,8.79
				c-2.664,3.822-4.784,7.746-6.36,11.772c-2.011,4.857-3.587,9.59-4.729,14.199c-1.141,4.609-2.092,8.546-2.853,11.812
				l11.044,6.378c0.761-3.265,1.712-7.202,2.853-11.812c1.142-4.609,2.718-9.342,4.729-14.199c0.947-2.418,2.114-4.794,3.453-7.139
				c0.891-1.559,1.843-3.107,2.908-4.633c2.662-3.82,5.76-6.75,9.294-8.79l62.292-35.964L139.936,164.463z"/>
			<g id="XMLID_991_" style="opacity:0.5;">
				<path style="fill:#FFFFFF;" d="M139.936,164.463l-62.292,35.964c-3.533,2.04-6.632,4.97-9.294,8.79
					c-2.664,3.822-4.784,7.746-6.36,11.772c-2.011,4.857-3.587,9.59-4.729,14.199c-1.141,4.609-2.092,8.546-2.853,11.812
					l11.044,6.378c0.761-3.265,1.712-7.202,2.853-11.812c1.142-4.609,2.718-9.342,4.729-14.199c0.947-2.418,2.114-4.794,3.453-7.139
					c0.891-1.559,1.843-3.107,2.908-4.633c2.662-3.82,5.76-6.75,9.294-8.79l62.292-35.964L139.936,164.463z"/>
			</g>
			<g style="opacity:0.5;">
				<path style="fill:#FFFFFF;" d="M73.034,227.367c0.947-2.418,2.114-4.794,3.453-7.139c0.891-1.559,1.843-3.107,2.908-4.633
					c2.662-3.82,5.76-6.75,9.294-8.79l62.292-35.964l-11.044-6.378l7.152,6.378c0,0-51.648,29.478-58.517,33.387
					c-6.87,3.909-16.888,11.736-23.12,49.15c0.761-3.265,1.712-7.202,2.853-11.812C69.446,236.957,71.023,232.224,73.034,227.367z"
					/>
			</g>
		</g>
		<g>
			<polygon id="XMLID_984_" style="fill:#BA68C8;" points="141.241,238.503 152.285,244.882 148.779,246.906 137.734,240.528 			"/>
			<g id="XMLID_333_" style="opacity:0.5;">
				<polygon style="fill:#FFFFFF;" points="141.241,238.503 152.285,244.882 148.779,246.906 137.734,240.528 				"/>
			</g>
		</g>
		<g>
			<path id="XMLID_982_" style="fill:#BA68C8;" d="M148.778,246.906l-7.677-4.434l-3.367-1.944
				c-0.163,1.616-0.326,3.231-0.489,4.848c-0.163,1.616-0.53,3.423-1.101,5.419c-0.571,1.998-1.481,4.007-2.732,6.034
				c-1.609,2.615-3.198,4.473-4.767,5.606c0.143,0.612,0.299,1.214,0.483,1.794c0.815,2.572,1.82,4.313,3.016,5.216
				c0.72,0.477,1.519,0.751,2.393,0.839c0.971,0.097,2.034-0.039,3.193-0.422c2.201-0.727,4.444-2.946,6.726-6.655
				c1.251-2.027,2.161-4.036,2.732-6.034c0.571-1.996,0.938-3.803,1.101-5.419S148.615,248.521,148.778,246.906"/>
			<g id="XMLID_859_" style="opacity:0.15;">
				<path d="M148.778,246.906l-7.677-4.434l-3.367-1.944c-0.163,1.616-0.326,3.231-0.489,4.848c-0.163,1.616-0.53,3.423-1.101,5.419
					c-0.571,1.998-1.481,4.007-2.732,6.034c-1.609,2.615-3.198,4.473-4.767,5.606c0.143,0.612,0.299,1.214,0.483,1.794
					c0.815,2.572,1.82,4.313,3.016,5.216c0.72,0.477,1.519,0.751,2.393,0.839c0.971,0.097,2.034-0.039,3.193-0.422
					c2.201-0.727,4.444-2.946,6.726-6.655c1.251-2.027,2.161-4.036,2.732-6.034c0.571-1.996,0.938-3.803,1.101-5.419
					S148.615,248.521,148.778,246.906"/>
			</g>
		</g>
		<g>
			<path id="XMLID_978_" style="fill:#BA68C8;" d="M120.026,287.849c-0.696-1.452-1.326-3.094-1.87-4.98
				c-0.409-1.485-0.744-3.239-1.012-5.242c-0.41-3.058-0.659-6.71-0.741-10.977c-0.136-7.057,0.041-14.134,0.53-21.227
				c0.918-12.027,2.103-27.563,2.855-37.42l-12.062,6.964l-1.836,24.072c-0.489,7.095-0.666,14.174-0.53,21.233
				c0.136,7.061,0.721,12.467,1.753,16.219c1.67,5.781,4.056,9.503,7.146,11.21l0.005,0.027l10.74,6.203
				C123.048,292.751,121.396,290.707,120.026,287.849z"/>
			<path id="XMLID_1011_" style="opacity:0.3;" d="M120.026,287.849c-0.696-1.452-1.326-3.094-1.87-4.98
				c-0.409-1.485-0.744-3.239-1.012-5.242c-0.41-3.058-0.659-6.71-0.741-10.977c-0.136-7.057,0.041-14.134,0.53-21.227
				c0.918-12.027,2.103-27.563,2.855-37.42l-12.062,6.964l-1.836,24.072c-0.489,7.095-0.666,14.174-0.53,21.233
				c0.136,7.061,0.721,12.467,1.753,16.219c1.67,5.781,4.056,9.503,7.146,11.21l0.005,0.027l10.74,6.203
				C123.048,292.751,121.396,290.707,120.026,287.849z"/>
			<path id="XMLID_42681_" style="opacity:0.1;" d="M107.725,214.967l-0.691,9.049l0,0l11.057,4.475l0.149-0.21
				c0.569-7.464,1.126-14.76,1.547-20.277L107.725,214.967z"/>
		</g>
		<g>
			<path id="XMLID_964_" style="fill:#BA68C8;" d="M89.013,225.745l-6.211,3.588c-0.013,0-0.025,0.013-0.038,0.025l0-0.003
				c-1.143,0.665-2.254,1.509-3.339,2.517c-0.362,0.337-0.721,0.692-1.077,1.064l-3.569,39.257c-0.218,2.808-0.763,5.568-1.631,8.28
				c-0.87,2.714-2.161,5.905-3.873,9.573c-1.713,3.671-2.651,5.699-2.813,6.081c-0.6,1.289-1.169,2.561-1.713,3.816
				c-0.544,1.256-1.032,2.59-1.468,3.999c-0.435,1.411-0.733,2.834-0.897,4.268c-0.163,1.437-0.081,3.037,0.244,4.806
				c0.336,1.822,1.189,3.125,2.546,3.924l0.002,0l0,0l11,6.364v-0.014c-1.333-0.789-2.175-2.094-2.502-3.902
				c-0.285-1.564-0.381-2.992-0.285-4.297c0.014-0.163,0.014-0.34,0.041-0.503c0.163-1.428,0.462-2.855,0.897-4.27
				c0.435-1.414,0.924-2.747,1.469-3.998c0.448-1.047,0.925-2.107,1.427-3.182c0.082-0.218,0.191-0.421,0.286-0.639
				c0.163-0.381,1.101-2.407,2.815-6.078c0.857-1.863,1.605-3.576,2.257-5.194c0.041-0.095,0.081-0.204,0.122-0.299l0-0.001
				c0,0.002,0,0.004-0.001,0.006c0.2-0.501,0.377-0.975,0.557-1.454c0.118-0.315,0.238-0.631,0.348-0.935
				c0.209-0.581,0.41-1.153,0.583-1.694c0.868-2.712,1.413-5.472,1.631-8.28l4.892-53.81L89.013,225.745z"/>
			<path id="XMLID_1038_" style="opacity:0.3;" d="M89.013,225.745l-6.211,3.588c-0.013,0-0.025,0.013-0.038,0.025l0-0.003
				c-1.143,0.665-2.254,1.509-3.339,2.517c-0.362,0.337-0.721,0.692-1.077,1.064l-3.569,39.257c-0.218,2.808-0.763,5.568-1.631,8.28
				c-0.87,2.714-2.161,5.905-3.873,9.573c-1.713,3.671-2.651,5.699-2.813,6.081c-0.6,1.289-1.169,2.561-1.713,3.816
				c-0.544,1.256-1.032,2.59-1.468,3.999c-0.435,1.411-0.733,2.834-0.897,4.268c-0.163,1.437-0.081,3.037,0.244,4.806
				c0.336,1.822,1.189,3.125,2.546,3.924l0.002,0l0,0l11,6.364v-0.014c-1.333-0.789-2.175-2.094-2.502-3.902
				c-0.285-1.564-0.381-2.992-0.285-4.297c0.014-0.163,0.014-0.34,0.041-0.503c0.163-1.428,0.462-2.855,0.897-4.27
				c0.435-1.414,0.924-2.747,1.469-3.998c0.448-1.047,0.925-2.107,1.427-3.182c0.082-0.218,0.191-0.421,0.286-0.639
				c0.163-0.381,1.101-2.407,2.815-6.078c0.857-1.863,1.605-3.576,2.257-5.194c0.041-0.095,0.081-0.204,0.122-0.299l0-0.001
				c0,0.002,0,0.004-0.001,0.006c0.2-0.501,0.377-0.975,0.557-1.454c0.118-0.315,0.238-0.631,0.348-0.935
				c0.209-0.581,0.41-1.153,0.583-1.694c0.868-2.712,1.413-5.472,1.631-8.28l4.892-53.81L89.013,225.745z"/>
			<g id="XMLID_42679_" style="opacity:0.1;">
				<path d="M89.241,240.997l1.476-16.236l-1.704,0.984l-6.21,3.588c-0.013,0-0.025,0.013-0.038,0.025l0-0.003
					c-1.143,0.665-2.254,1.509-3.339,2.517c-0.362,0.337-0.721,0.692-1.077,1.064l-0.368,4.047L89.241,240.997z"/>
			</g>
		</g>
	</g>
</g>
<g id="Character">
	<g id="Character_7_">
		<g id="Bottom_1_">
			<g>
				<g id="XMLID_1058_">
					<path id="XMLID_1059_" style="fill:#FFA8A7;" d="M382.932,287.6c-0.2-3.05-1.978-33.796-1.978-33.796l14.697,11.071
						c-2.353,17.59-3.11,22.43-3.195,25.363l0,0c0.022,0.068-0.095,0.188-0.104,0.622c-0.05,3.484-4.003,5.321-7.095,7.61
						c-1.222,0.904-4.775,3.575-8.355,5.326c-2.241,1.096-6.767,1.149-7.313-0.291c3.764-2.81,8.118-5.878,11.122-9.1
						C382.146,292.866,383.172,291.259,382.932,287.6z"/>
				</g>
				<g>
					<path style="fill:#263238;" d="M363.185,307.186c-0.191-0.002-0.503,2.104,0.527,3.012c1.189,1.048,4.693,2.785,9.354,2.233
						c4.661-0.552,7.196-1.965,9.075-3.504c1.879-1.539,4.513-3.709,6.623-4.151c1.96-0.41,4.093-1.274,4.726-1.871
						c0.632-0.598,0.574-3.286,0.574-3.286L363.185,307.186z"/>
					<path id="XMLID_1056_" style="fill:#37474F;" d="M392.494,289.289c0,0,0.41-0.019,0.524,0.604
						c0.135,0.742,0.267,2.898,0.562,4.116c0.409,1.694,0.658,5.16,0.387,6.534c-0.271,1.374-3.47,2.297-5.515,3.051
						c-2.089,0.77-4.514,2.378-6.645,4.098c-2.206,1.78-6.826,3.54-9.86,3.552c-4.632,0.018-7.617-1.27-8.525-2.944
						c-1.124-2.071-0.212-3.255,5.135-5.664c1.012-0.456,4.574-2.512,5.787-3.258c3.285-2.019,6.548-4.843,8.088-8.461
						c0.18-0.423,0.369-0.891,0.777-1.103c0.313-0.162,0.687-0.135,1.036-0.082c0.885,0.134,1.749,0.406,2.553,0.8
						c0.711,0.348,1.72,0.755,1.694,1.67c-0.009,0.318-0.104,0.628-0.21,0.928c-0.066,0.186-0.119,0.434,0.044,0.546
						c0.153,0.106,0.359-0.011,0.499-0.134c0.563-0.493,0.978-1.128,1.453-1.706c0.255-0.309,0.532-0.606,0.852-0.849
						c0.29-0.221,0.659-0.329,0.918-0.581C392.374,290.086,392.474,289.717,392.494,289.289z"/>
					<path style="fill:#FAFAFA;" d="M367.694,303.033c6.7,0.534,8.766,4.697,9.024,7.262c-1.667,0.571-3.385,0.944-4.771,0.949
						c-4.632,0.018-7.807-1.27-8.716-2.944C362.171,306.345,362.922,304.786,367.694,303.033z"/>
					<g>
						<g>
							<path style="fill:#F0F0F0;" d="M377.744,303.209c0.073,0.001,0.146-0.022,0.208-0.072c0.141-0.113,0.163-0.319,0.051-0.46
								c-0.921-1.153-3.597-2.694-6.036-2.455c-0.181,0.017-0.313,0.178-0.294,0.357c0.017,0.18,0.173,0.311,0.357,0.294
								c2.277-0.217,4.732,1.298,5.462,2.213C377.555,303.166,377.648,303.208,377.744,303.209z"/>
						</g>
						<g>
							<path style="fill:#F0F0F0;" d="M380.649,301.557c0.073,0.001,0.146-0.022,0.208-0.072c0.142-0.113,0.164-0.319,0.051-0.46
								c-0.922-1.154-3.598-2.699-6.036-2.455c-0.181,0.017-0.312,0.178-0.294,0.358c0.017,0.179,0.17,0.311,0.357,0.294
								c2.277-0.22,4.732,1.298,5.462,2.213C380.46,301.514,380.554,301.556,380.649,301.557z"/>
						</g>
						<g>
							<path style="fill:#F0F0F0;" d="M383.345,299.665c0.073,0.001,0.146-0.023,0.208-0.072c0.141-0.113,0.164-0.319,0.051-0.46
								c-0.921-1.154-3.608-2.696-6.036-2.455c-0.18,0.017-0.312,0.178-0.294,0.357c0.017,0.18,0.171,0.31,0.358,0.294
								c2.274-0.218,4.731,1.298,5.462,2.213C383.156,299.621,383.25,299.664,383.345,299.665z"/>
						</g>
						<g>
							<path style="fill:#F0F0F0;" d="M385.987,297.771c0.071,0.001,0.143-0.021,0.204-0.069c0.143-0.111,0.169-0.317,0.058-0.459
								c-1.267-1.635-4.157-2.734-6.594-2.494c-0.181,0.017-0.313,0.178-0.294,0.357c0.017,0.18,0.172,0.306,0.357,0.294
								c2.194-0.215,4.889,0.794,6.013,2.244C385.795,297.727,385.891,297.77,385.987,297.771z"/>
						</g>
					</g>
				</g>
			</g>
			<g>
				<g id="XMLID_1054_">
					<path id="XMLID_1055_" style="fill:#FFA8A7;" d="M412.286,264.647l14.674-1.745c0.769,9.836,0.305,20.886,0.976,30.12
						c0.126,1.738,1.398,13.464,1.103,17.097c-0.443,5.457-6.876,5.373-7.536,2.2c-0.66-3.173-2.258-17.025-2.421-18.436
						c-0.538-5.911-3.34-15.525-5.858-25.98C413.1,267.39,412.404,265.148,412.286,264.647z"/>
				</g>
				<g>
					<path style="fill:#263238;" d="M419.33,314.791c0.184,3.162,0.675,5.259,1.797,7.113c1.122,1.854,3.239,2.437,5.382,1.894
						c2.144-0.543,4.889-1.995,5.504-4.723c0.614-2.728,0.49-4.597,0.003-7.53L419.33,314.791z"/>
					<path id="XMLID_1052_" style="fill:#37474F;" d="M427.86,291.893c0.883,0.069,1.144,4.315,1.653,8.566
						c0.546,4.557,1.906,6.442,2.394,10.178c0.557,4.269,0.333,6.176-1.163,8.757c-1.495,2.581-6.79,5.113-9.399,1.417
						c-2.127-3.014-2.215-6.355-2.021-10.618c0.201-4.406-0.104-7.457-0.284-10.801c-0.172-3.196-0.88-6.419-0.112-6.775
						c0.059,0.47,0.117,1.065,0.179,1.526c0.048,0.354,0.137,2.084,0.631,2.101c0.046-0.408,0.037-0.789,0.01-1.204
						c-0.024-0.361,0.007-0.755,0.242-1.031c0.237-0.277,0.622-0.367,0.98-0.438c0.869-0.172,2.711-0.249,3.594-0.329
						c0.44-0.04,0.881-0.061,1.323-0.056c0.358,0.004,0.78,0.034,1.119,0.16c0.208,0.077,0.401,0.225,0.478,0.434
						c0.057,0.154,0.046,0.323,0.046,0.487c0,0.295,0.037,0.59,0.111,0.876c0.032,0.126,0.119,0.28,0.246,0.249
						c0.103-0.025,0.143-0.153,0.144-0.258c0.003-0.515-0.062-0.89-0.086-1.489c-0.011-0.277-0.056-0.654-0.06-0.932
						C427.881,292.439,427.879,292.165,427.86,291.893z"/>
					<path style="fill:#FAFAFA;" d="M432.152,313.11c0.152,2.651,0.001,4.466-1.17,6.486c-1.495,2.581-7.217,5.121-9.826,1.425
						c-1.298-1.839-1.646-4.014-1.825-6.232C420.896,311.94,429.686,310.685,432.152,313.11z"/>
					<g>
						<g>
							<path style="fill:#F0F0F0;" d="M421.598,310.148c0.037-0.004,0.073-0.013,0.109-0.03c0.036-0.017,3.64-1.707,7.618-0.786
								c0.176,0.038,0.351-0.07,0.393-0.246c0.041-0.176-0.07-0.352-0.246-0.393c-4.207-0.971-7.893,0.76-8.048,0.833
								c-0.163,0.079-0.232,0.274-0.154,0.437C421.33,310.091,421.464,310.161,421.598,310.148z"/>
						</g>
						<g>
							<path style="fill:#F0F0F0;" d="M429.111,306.15c0.124-0.013,0.235-0.095,0.278-0.22c0.057-0.172-0.034-0.358-0.205-0.416
								c-3.96-1.341-7.872,0.672-8.038,0.759c-0.161,0.084-0.222,0.281-0.138,0.442c0.084,0.16,0.285,0.218,0.442,0.138
								c0.037-0.019,3.838-1.97,7.523-0.717C429.018,306.15,429.065,306.155,429.111,306.15z"/>
						</g>
						<g>
							<path style="fill:#F0F0F0;" d="M428.883,303.15c0.122-0.012,0.231-0.093,0.275-0.215c0.061-0.171-0.027-0.359-0.197-0.419
								c-4.355-1.56-8.045,0.64-8.199,0.734c-0.155,0.094-0.204,0.295-0.11,0.45c0.094,0.155,0.299,0.204,0.45,0.11
								c0.034-0.022,3.584-2.128,7.637-0.677C428.788,303.15,428.836,303.155,428.883,303.15z"/>
						</g>
						<g>
							<path style="fill:#EBEBEB;" d="M428.615,299.78c0.12-0.012,0.229-0.09,0.274-0.211c0.063-0.169-0.022-0.358-0.191-0.422
								c-4.081-1.528-8.089,0.727-8.258,0.825c-0.157,0.089-0.21,0.29-0.12,0.447c0.089,0.157,0.289,0.214,0.447,0.12
								c0.039-0.022,3.911-2.199,7.701-0.779C428.516,299.779,428.566,299.785,428.615,299.78z"/>
						</g>
					</g>
				</g>
			</g>
			<g>
				<path id="XMLID_1051_" style="fill:#37474F;" d="M417.42,165.486c2.82,6.465,5.869,10.987,6.233,23.167
					c0.773,25.893,1.086,44.305,1.086,44.305c0.169,2.284,1.993,6.329,2.827,18.163c0.729,10.354,0.47,24.541,0.47,24.541
					s-7.104,3.529-13.21,1.044c-2.432-8.415-6.261-30.467-8.914-41.737c-2.408-10.232-4.789-25.216-4.789-25.216l-3.862,25.352
					c0,0,0.729,10.157,0.389,16.142c-0.395,6.961-3.64,26.483-3.64,26.483s-7.173,2.932-12.422-0.961c0,0-2.816-34.88-2.873-43.262
					c-0.112-16.442-0.366-52.457,3.379-68.411L417.42,165.486z"/>
				<path style="fill:#455A64;" d="M428.358,273.204c-2.49,1.561-11.055,2.777-14.442,1.511l0.958,3.981
					c0,0,2.208,0.894,6.875,0.629c4.668-0.265,6.484-2.203,6.484-2.203L428.358,273.204z"/>
				<path style="fill:#455A64;" d="M394.722,274.322c-2.671,1.227-10.446,1.017-13.641-0.676l0.436,4.072
					c0,0,1.528,1.743,6.202,1.827c4.694,0.084,6.374-1.352,6.374-1.352L394.722,274.322z"/>
				<path id="XMLID_1049_" style="fill:#263238;" d="M401.123,209.753l-2.823-18.288c0,0-10.915-1.296-14.884-5.109
					c0,0,5.005,7.062,12.41,8.214l3.112,15.16l-1.645,25.159L401.123,209.753z"/>
			</g>
		</g>
		<g id="Top_8_">
			<g id="Arm_5_">
				<path style="fill:#FFA8A7;" d="M353.309,121.565c1.598,3.199,6.182,8.874,8.78,12.333c2.457,3.272,4.195,5.434,4.195,5.434
					s2.29-1.678,6.098-4.484c9.39-6.92,11.889-10.408,20.181-10.408l-0.319,15.5c-6.083,3.512-18.777,10.646-24.92,13.369
					c-3.222,1.428-5.938,0.632-7.729-1.743c-2.734-3.626-5.667-8.833-7.19-11.626c-3.18-5.83-5.411-10.508-6.766-13.11
					L353.309,121.565z"/>
				<g>
					<path style="fill:#FFA8A7;" d="M356.16,126.115c-2.281-3.778-3.935-5.456-2.774-8.618c1.161-3.163,2.198-4.622,2.206-5.427
						c0.009-0.805-1.301-4.731-1.437-6.46c-0.136-1.729-0.633-2.193-1.95-2.857c-1.317-0.664-4.192-2.054-4.942-2.6
						c0,0-1.286,1.407,0.235,2.951c0.678,0.688,1.634,1.697,1.634,1.697s-1.546,0.897-2.265,1.254
						c-0.718,0.356-0.785,0.838-0.711,2.893c0,0-0.968,0.055-1.329,0.661c-0.361,0.606-0.37,1.392-0.377,2.035
						c0,0-0.624,0.053-1.08,0.524c-0.456,0.471-0.519,2.151-0.373,3.643c-0.044,1.721-0.683,3.806-0.605,5.274
						c0.077,1.468,1.546,3.525,2.676,4.681l5.408,10.092l10.916-2.421C361.392,133.436,357.831,128.881,356.16,126.115z"/>
					<path style="fill:#F28F8F;" d="M353.589,112.03c-0.807-1.295-1.239-2.537-1.128-3.904c0.11-1.368,0.325-2.875-0.081-3.04
						c-0.682-0.277-2.48,0.575-2.858,2.785c-0.361,2.108-0.267,4.761-0.411,5.36c-0.144,0.599-1.127,1.772-1.923,2.657
						c-0.796,0.884-2.106,3.513-0.375,6.64c0,0-1.365-1.158-1.515-3.696c-0.15-2.538,1.977-4.265,2.63-5.222
						c0.654-0.957,0.785-1.151,0.797-3.197c0.012-2.046,0.014-4.254,2.064-5.507c2.05-1.254,2.38-0.169,2.409,0.51
						C353.227,106.096,352.27,110.019,353.589,112.03z"/>
					<path style="fill:#F28F8F;" d="M349.133,104.8l1.048,1.103l-0.532,0.182c0,0-0.546-0.782-1.824-0.542L349.133,104.8z"/>
					<path style="fill:#F28F8F;" d="M346.157,108.947c0.001,0.677,0.137,2.773,0.159,3.198c0.022,0.424,0.768,0.565,1.434,0.016
						c0.666-0.549,0.937-0.997,1.104-1.738c0,0-0.026,1.256-0.856,1.99s-1.532,0.612-1.891,0.342
						C345.748,112.487,346.172,110.392,346.157,108.947z"/>
					<path style="fill:#F28F8F;" d="M344.451,111.643c-0.006,0.508,0.105,1.203,0.118,2.607c0.008,0.812-0.017,1.331,0.447,1.437
						c0.464,0.106,1.568-0.547,1.781-1.456c0.213-0.909,0.191-1.604,0.191-1.604l0.405-0.025c0,0,0.07,1.505-0.498,2.483
						c-0.567,0.977-1.874,1.426-2.231,0.988c-0.357-0.438-0.345-0.894-0.31-2.058C344.39,112.853,344.451,111.643,344.451,111.643z"
						/>
					<path style="fill:#F28F8F;" d="M344.643,115.666c-0.038,0.329-0.449,0.954-0.959,0.79c-0.511-0.165-0.686-0.646-0.686-0.646
						s-0.019,0.729,0.649,0.938c0.616,0.193,1.133-0.324,1.422-0.816L344.643,115.666z"/>
				</g>
			</g>
			<g id="XMLID_1004_">
				<path style="fill:#455A64;" d="M390.34,88.022c-4.892-0.148-8.647,3.844-7.091,8.72c0.939,2.943,2.438,9.866-0.879,9.866
					c0,0,1.084,2.092,4.556,0.913c3.472-1.179,22.409,11.509,22.409,11.509s3.679-5.571,5.871-8.779
					c2.565-3.753,6.08-10.986,0.779-14.738c0,0,0.399-6.336-4.737-9.796C406.113,82.258,394.641,80.856,390.34,88.022z"/>
				<path id="XMLID_1048_" style="fill:#FFA8A7;" d="M389.182,93.696c0,0-3.398,3.453-2.987,14.266
					c0.342,8.985,1.963,11.091,4.428,12.132c1.471,0.621,3.836,0.537,6.603,0.253l0.113,4.289c0,0-7.943,6.875-1.702,8.07
					c3.117,0.597,7.017-0.41,9.816-2.353c2.862-1.986,3.9-3.784,3.9-3.784l-0.028-12.077c0,0,2.173,1.644,5.055-0.573
					c2.379-1.83,3.347-5.108,1.702-7.003c-1.645-1.894-5.065-1.643-6.47,0.823c0,0-2.462,0.988-2.28-2.344
					c0,0,1.018-8.683-3.042-11.183C401.055,92.219,393.831,100.35,389.182,93.696z"/>
				<g>
					<g>
						<path id="XMLID_1047_" style="fill:#B16668;" d="M398.77,111.488l-4.019,1.689c0.449,1.153,1.713,1.71,2.822,1.244
							C398.683,113.954,399.219,112.642,398.77,111.488z"/>
						<path style="fill:#F28F8F;" d="M398.415,112.61c-1.021,0-1.85,0.828-1.85,1.85c0,0.037,0.009,0.072,0.011,0.108
							c0.329,0.03,0.669-0.009,0.996-0.147c0.732-0.308,1.207-0.985,1.321-1.741C398.74,112.639,398.582,112.61,398.415,112.61z"/>
					</g>
					<path id="XMLID_1041_" style="fill:#37474F;" d="M388.204,101.53l2.666-0.797c-0.194-0.75-0.948-1.18-1.685-0.96
						C388.45,99.993,388.01,100.78,388.204,101.53z"/>
					<path id="XMLID_1039_" style="fill:#37474F;" d="M399.715,100.939l2.53,1.158c0.349-0.692,0.065-1.513-0.634-1.832
						C400.913,99.945,400.064,100.247,399.715,100.939z"/>
					<polygon id="XMLID_1009_" style="fill:#F28F8F;" points="394.572,103.163 394.481,110.757 390.34,110.179 					"/>
					<path id="XMLID_1007_" style="fill:#F28F8F;" d="M397.226,120.346c2.909-0.198,9.264-2.595,10.336-4.884
						c0,0-0.426,2.595-2.42,3.819c-2.795,1.716-7.87,2.822-7.87,2.822L397.226,120.346z"/>
					<path id="XMLID_1006_" style="fill:#263238;" d="M390.963,104.247c0.065,0.678-0.436,1.295-1.121,1.38
						c-0.684,0.085-1.291-0.396-1.357-1.074c-0.066-0.678,0.436-1.295,1.12-1.38C390.29,103.089,390.898,103.569,390.963,104.247z"
						/>
					<path id="XMLID_1005_" style="fill:#263238;" d="M400.259,104.341c0.065,0.678-0.436,1.295-1.121,1.38
						c-0.684,0.085-1.291-0.396-1.357-1.074c-0.066-0.678,0.436-1.295,1.12-1.38C399.586,103.183,400.194,103.664,400.259,104.341z"
						/>
				</g>
			</g>
			<g>
				<path style="fill:#263238;" d="M397.339,124.635c0,0-2.486,2.152,0.199,3.275c2.685,1.123,9.406-0.35,11.888-2.752
					c0,0,6.12,0.833,7.957,1.343c1.837,0.51,3.106,7.011,2.004,13.696c-1.101,6.685-3.073,20.711-3.073,20.711
					c3.56,6.119,5.946,12.961,7.082,20.262c0,0-7.149,5.185-24.318,5.185c-14.043,0-19.482-4.111-19.482-4.111
					c0.402-8.686,1.124-13.91,2.393-21.055c0,0-0.858-3.287-0.617-7.719c0,0-4.293-3.355-4.572-7.699
					c-0.292-4.554,1.901-7.732,6.1-12.795c3.644-4.394,9.663-8.535,9.663-8.535L397.339,124.635z"/>
				<path style="opacity:0.2;" d="M408.444,151.39c0,0-2.532,5.2-9.249,4.816c-6.144-0.351-8.454-5.619-8.454-5.619
					s0.068,7.067,8.409,7.309C407.48,158.136,408.444,151.39,408.444,151.39z"/>
			</g>
			<path id="XMLID_313_" style="fill:#FFA8A7;" d="M438.708,162.636c-1.96-7.654-8.519-20.838-10.92-26.971
				c-2.995-7.651-5.99-8.747-12.368-9.576c-1.846,2.383-5.013,10.606,0.677,17.459c2.422,5.101,10.344,19.527,10.344,19.527
				c-0.188,1.376-3.91,15.536-6.069,20.21c-0.382,0.828-1.076,1.469-1.912,1.833c-2.243,0.977-4.87,3.429-6.656,4.816
				c-1.398,1.086-2.476,1.247-2.377,1.674c0.128,0.548,0.865,1.516,2.415,1.285c0.78-0.116,3.125-1.204,4.442-1.792
				c0,0-2.087,3.363-4.442,6.078c-3.015,3.476-2.91,6.455,2.961,6.546c4.442,0.069,6.783-2.43,10.719-10.04
				c1.134-2.192,2.768-5.101,4.125-7.92c3.429-7.122,4.095-7.757,5.968-12.312C438.571,166.268,439.464,165.587,438.708,162.636z"/>
		</g>
		<g id="Circle_7_">
			<path style="fill:#BA68C8;" d="M336.73,132.816c-0.44,0-0.888-0.019-1.341-0.058c-0.275-0.023-0.479-0.265-0.456-0.54
				c0.022-0.275,0.275-0.482,0.54-0.456c0.66,0.056,1.305,0.067,1.932,0.037c0.308-0.019,0.51,0.2,0.523,0.475
				c0.014,0.276-0.199,0.51-0.475,0.524C337.216,132.811,336.974,132.816,336.73,132.816z M340.383,132.318
				c-0.217,0-0.417-0.142-0.48-0.361c-0.076-0.265,0.076-0.542,0.342-0.619c0.614-0.177,1.216-0.408,1.786-0.684
				c0.249-0.119,0.547-0.017,0.668,0.232c0.12,0.249,0.017,0.547-0.232,0.668c-0.621,0.301-1.275,0.551-1.944,0.745
				C340.476,132.312,340.429,132.318,340.383,132.318z M332.479,132.253c-0.04,0-0.082-0.005-0.123-0.016
				c-0.64-0.163-1.298-0.364-1.957-0.599c-0.26-0.093-0.396-0.379-0.303-0.639c0.092-0.26,0.378-0.395,0.639-0.303
				c0.63,0.225,1.258,0.417,1.867,0.572c0.268,0.068,0.43,0.34,0.361,0.607C332.906,132.102,332.703,132.253,332.479,132.253z
				 M327.809,130.493c-0.074,0-0.15-0.017-0.222-0.052c-0.591-0.292-1.189-0.611-1.791-0.959c-0.2-0.115-0.399-0.233-0.599-0.354
				c-0.236-0.143-0.311-0.451-0.168-0.687c0.145-0.237,0.453-0.311,0.688-0.168c0.191,0.116,0.385,0.23,0.578,0.342
				c0.584,0.337,1.162,0.646,1.734,0.929c0.248,0.122,0.35,0.422,0.228,0.669C328.17,130.391,327.992,130.493,327.809,130.493z
				 M344.741,129.956c-0.14,0-0.279-0.059-0.378-0.173c-0.181-0.209-0.158-0.524,0.051-0.705c0.475-0.411,0.924-0.872,1.337-1.369
				c0.176-0.213,0.491-0.242,0.704-0.066c0.213,0.176,0.242,0.492,0.065,0.704c-0.447,0.54-0.936,1.04-1.452,1.486
				C344.974,129.917,344.857,129.956,344.741,129.956z M322.959,127.54c-0.103,0-0.205-0.031-0.294-0.095
				c-0.542-0.394-1.078-0.805-1.607-1.232c-0.215-0.173-0.249-0.488-0.076-0.703c0.175-0.215,0.491-0.248,0.703-0.075
				c0.517,0.416,1.04,0.817,1.568,1.201c0.224,0.163,0.272,0.475,0.11,0.699C323.266,127.469,323.113,127.54,322.959,127.54z
				 M347.781,126.029c-0.078,0-0.157-0.018-0.23-0.056c-0.245-0.127-0.341-0.43-0.213-0.674c0.289-0.557,0.554-1.153,0.784-1.771
				c0.097-0.259,0.387-0.389,0.643-0.293c0.259,0.097,0.391,0.385,0.294,0.644c-0.246,0.656-0.526,1.289-0.835,1.881
				C348.136,125.931,347.961,126.029,347.781,126.029z M319.103,124.36c-0.122,0-0.244-0.044-0.34-0.134
				c-0.491-0.455-0.976-0.924-1.453-1.405c-0.194-0.196-0.192-0.513,0.003-0.707c0.197-0.195,0.513-0.193,0.708,0.003
				c0.468,0.472,0.941,0.931,1.422,1.377c0.203,0.188,0.215,0.504,0.026,0.707C319.371,124.307,319.237,124.36,319.103,124.36z
				 M349.422,121.324c-0.035,0-0.069-0.003-0.104-0.011c-0.27-0.057-0.442-0.322-0.386-0.593c0.131-0.621,0.24-1.27,0.323-1.931
				c0.035-0.275,0.288-0.468,0.559-0.434c0.274,0.035,0.468,0.285,0.434,0.559c-0.087,0.688-0.2,1.365-0.337,2.013
				C349.86,121.163,349.652,121.324,349.422,121.324z M315.618,120.775c-0.139,0-0.277-0.058-0.376-0.17
				c-0.441-0.503-0.876-1.018-1.303-1.541c-0.175-0.214-0.143-0.529,0.072-0.704c0.214-0.173,0.528-0.143,0.703,0.072
				c0.419,0.515,0.846,1.019,1.279,1.514c0.182,0.208,0.161,0.524-0.046,0.706C315.853,120.734,315.735,120.775,315.618,120.775z
				 M312.496,116.871c-0.154,0-0.307-0.071-0.404-0.206c-0.396-0.543-0.783-1.095-1.161-1.654c-0.155-0.229-0.095-0.539,0.134-0.694
				c0.228-0.154,0.539-0.095,0.694,0.134c0.372,0.549,0.752,1.091,1.142,1.626c0.162,0.223,0.113,0.536-0.109,0.698
				C312.702,116.839,312.599,116.871,312.496,116.871z M349.961,116.362c-0.003,0-0.006,0-0.01,0
				c-0.275-0.005-0.495-0.233-0.49-0.509l0.007-0.617c0-0.446-0.01-0.898-0.028-1.353c-0.011-0.276,0.204-0.508,0.479-0.52
				c0.287-0.024,0.509,0.204,0.521,0.479c0.018,0.468,0.028,0.933,0.028,1.395l-0.007,0.633
				C350.456,116.144,350.232,116.362,349.961,116.362z M309.728,112.702c-0.169,0-0.334-0.085-0.428-0.241
				c-0.349-0.576-0.687-1.158-1.015-1.746c-0.135-0.241-0.048-0.545,0.192-0.68c0.239-0.133,0.545-0.049,0.681,0.193
				c0.322,0.577,0.654,1.149,0.997,1.714c0.142,0.236,0.067,0.544-0.169,0.687C309.906,112.679,309.817,112.702,309.728,112.702z
				 M349.691,111.373c-0.248,0-0.464-0.186-0.495-0.438c-0.08-0.648-0.177-1.3-0.29-1.955c-0.047-0.272,0.136-0.531,0.408-0.578
				c0.267-0.046,0.531,0.135,0.578,0.408c0.115,0.67,0.214,1.338,0.296,2.002c0.034,0.274-0.161,0.524-0.435,0.558
				C349.732,111.372,349.712,111.373,349.691,111.373z M307.327,108.316c-0.184,0-0.36-0.102-0.448-0.278
				c-0.299-0.604-0.586-1.212-0.862-1.824c-0.113-0.252-0.001-0.548,0.25-0.661c0.252-0.113,0.548-0.002,0.662,0.25
				c0.27,0.6,0.552,1.197,0.847,1.791c0.122,0.247,0.022,0.547-0.227,0.67C307.478,108.299,307.402,108.316,307.327,108.316z
				 M348.786,106.458c-0.226,0-0.43-0.153-0.485-0.381c-0.156-0.638-0.326-1.276-0.509-1.914c-0.076-0.266,0.077-0.542,0.343-0.618
				c0.268-0.079,0.543,0.079,0.618,0.343c0.187,0.651,0.36,1.302,0.519,1.952c0.065,0.269-0.099,0.539-0.367,0.604
				C348.865,106.454,348.825,106.458,348.786,106.458z M305.313,103.742c-0.2,0-0.39-0.121-0.466-0.319
				c-0.245-0.63-0.477-1.263-0.695-1.896c-0.09-0.261,0.049-0.545,0.31-0.636c0.262-0.089,0.546,0.049,0.636,0.31
				c0.215,0.622,0.442,1.242,0.682,1.86c0.101,0.258-0.027,0.547-0.285,0.648C305.434,103.731,305.373,103.742,305.313,103.742z
				 M347.356,101.667c-0.206,0-0.399-0.128-0.472-0.334c-0.219-0.621-0.449-1.239-0.693-1.855c-0.102-0.257,0.024-0.547,0.281-0.649
				c0.253-0.101,0.548,0.024,0.648,0.281c0.248,0.628,0.484,1.259,0.707,1.892c0.092,0.26-0.045,0.546-0.306,0.638
				C347.468,101.658,347.411,101.667,347.356,101.667z M303.727,99.002c-0.219,0-0.42-0.145-0.482-0.365
				c-0.183-0.653-0.352-1.305-0.505-1.957c-0.063-0.269,0.103-0.538,0.371-0.602c0.272-0.062,0.539,0.103,0.602,0.372
				c0.151,0.638,0.316,1.278,0.495,1.917c0.074,0.266-0.081,0.542-0.347,0.616C303.816,98.996,303.771,99.002,303.727,99.002z
				 M345.479,97.034c-0.189,0-0.37-0.108-0.454-0.292c-0.275-0.599-0.561-1.195-0.857-1.787c-0.123-0.247-0.023-0.547,0.224-0.671
				c0.244-0.122,0.547-0.023,0.671,0.223c0.301,0.602,0.592,1.208,0.871,1.818c0.115,0.251,0.006,0.548-0.245,0.663
				C345.62,97.02,345.55,97.034,345.479,97.034z M302.636,94.123c-0.24,0-0.452-0.174-0.492-0.419
				c-0.11-0.671-0.204-1.339-0.28-2.005c-0.031-0.274,0.166-0.522,0.44-0.553c0.27-0.039,0.522,0.165,0.554,0.44
				c0.074,0.649,0.166,1.302,0.273,1.957c0.045,0.272-0.14,0.529-0.412,0.574C302.69,94.121,302.663,94.123,302.636,94.123z
				 M343.204,92.584c-0.174,0-0.343-0.091-0.435-0.253c-0.327-0.576-0.663-1.146-1.008-1.71c-0.143-0.235-0.069-0.543,0.166-0.688
				c0.233-0.142,0.543-0.07,0.688,0.166c0.351,0.573,0.692,1.153,1.023,1.738c0.137,0.24,0.052,0.545-0.189,0.682
				C343.373,92.563,343.288,92.584,343.204,92.584z M302.142,89.15c-0.27,0-0.491-0.214-0.5-0.484
				c-0.011-0.352-0.017-0.702-0.017-1.05c0-0.331,0.005-0.658,0.015-0.98c0.009-0.271,0.23-0.484,0.5-0.484c0.005,0,0.01,0,0.016,0
				c0.275,0.009,0.492,0.239,0.484,0.515c-0.01,0.313-0.015,0.629-0.015,0.95c0,0.338,0.006,0.678,0.017,1.019
				c0.009,0.276-0.209,0.507-0.484,0.516C302.151,89.15,302.147,89.15,302.142,89.15z M340.555,88.34
				c-0.159,0-0.315-0.076-0.413-0.218c-0.374-0.547-0.759-1.087-1.15-1.618c-0.164-0.222-0.116-0.535,0.105-0.699
				c0.224-0.164,0.535-0.117,0.699,0.105c0.399,0.541,0.79,1.09,1.172,1.647c0.155,0.228,0.098,0.539-0.131,0.695
				C340.751,88.312,340.652,88.34,340.555,88.34z M337.549,84.342c-0.143,0-0.286-0.062-0.386-0.182
				c-0.423-0.512-0.853-1.014-1.29-1.505c-0.183-0.207-0.164-0.522,0.042-0.706c0.206-0.183,0.522-0.165,0.706,0.042
				c0.444,0.5,0.883,1.011,1.314,1.533c0.176,0.213,0.146,0.528-0.067,0.704C337.774,84.305,337.661,84.342,337.549,84.342z
				 M302.389,84.163c-0.023,0-0.046-0.002-0.069-0.005c-0.273-0.038-0.465-0.29-0.427-0.563c0.094-0.68,0.217-1.356,0.365-2.009
				c0.061-0.269,0.32-0.437,0.599-0.377c0.269,0.062,0.438,0.33,0.376,0.599c-0.142,0.625-0.26,1.272-0.35,1.924
				C302.849,83.982,302.634,84.163,302.389,84.163z M334.185,80.643c-0.128,0-0.255-0.048-0.353-0.146
				c-0.471-0.468-0.948-0.924-1.432-1.366c-0.204-0.186-0.219-0.502-0.032-0.706c0.186-0.204,0.503-0.219,0.706-0.032
				c0.495,0.452,0.982,0.917,1.463,1.395c0.196,0.195,0.196,0.511,0.002,0.707C334.441,80.594,334.313,80.643,334.185,80.643z
				 M303.626,79.332c-0.061,0-0.123-0.011-0.184-0.035c-0.257-0.102-0.383-0.392-0.281-0.649c0.257-0.648,0.55-1.276,0.873-1.865
				c0.133-0.243,0.438-0.331,0.679-0.198c0.242,0.133,0.331,0.437,0.198,0.679c-0.303,0.553-0.579,1.143-0.82,1.753
				C304.014,79.213,303.825,79.332,303.626,79.332z M330.453,77.317c-0.109,0-0.219-0.035-0.31-0.108
				c-0.521-0.412-1.047-0.808-1.578-1.187c-0.226-0.161-0.277-0.473-0.117-0.698c0.161-0.226,0.473-0.275,0.697-0.117
				c0.545,0.389,1.085,0.795,1.619,1.217c0.217,0.171,0.253,0.486,0.081,0.703C330.746,77.252,330.601,77.317,330.453,77.317z
				 M306.179,75.066c-0.117,0-0.235-0.041-0.33-0.125c-0.207-0.182-0.228-0.498-0.046-0.706c0.465-0.528,0.968-1.015,1.494-1.445
				c0.213-0.174,0.528-0.144,0.703,0.071c0.175,0.214,0.144,0.529-0.07,0.704c-0.484,0.396-0.947,0.844-1.375,1.331
				C306.455,75.008,306.317,75.066,306.179,75.066z M326.342,74.478c-0.087,0-0.174-0.022-0.254-0.069l-0.294-0.172
				c-0.479-0.276-0.957-0.535-1.431-0.776c-0.246-0.125-0.345-0.427-0.219-0.673c0.125-0.247,0.431-0.342,0.672-0.219
				c0.489,0.249,0.982,0.517,1.479,0.803l0.3,0.176c0.238,0.14,0.317,0.446,0.177,0.685C326.68,74.39,326.513,74.478,326.342,74.478
				z M321.847,72.305c-0.058,0-0.117-0.01-0.175-0.031c-0.623-0.232-1.249-0.435-1.859-0.602c-0.267-0.073-0.424-0.348-0.351-0.614
				c0.073-0.266,0.348-0.42,0.614-0.351c0.64,0.175,1.294,0.387,1.945,0.629c0.259,0.097,0.391,0.385,0.294,0.643
				C322.24,72.181,322.05,72.305,321.847,72.305z M310.154,72.105c-0.19,0-0.373-0.11-0.456-0.295
				c-0.113-0.252-0.001-0.548,0.251-0.661c0.627-0.281,1.288-0.513,1.966-0.688c0.27-0.072,0.54,0.092,0.609,0.359
				c0.068,0.268-0.092,0.54-0.359,0.609c-0.623,0.161-1.23,0.373-1.806,0.632C310.293,72.091,310.223,72.105,310.154,72.105z
				 M317.002,71.126c-0.018,0-0.035-0.001-0.054-0.003c-0.536-0.056-1.07-0.085-1.586-0.085l-0.345,0.004c-0.005,0-0.009,0-0.013,0
				c-0.271,0-0.493-0.216-0.5-0.488c-0.007-0.276,0.212-0.505,0.487-0.512l0.37-0.004c0.551,0,1.12,0.03,1.691,0.091
				c0.274,0.029,0.474,0.275,0.444,0.549C317.472,70.935,317.254,71.126,317.002,71.126z"/>
		</g>
	</g>
</g>
</svg>
